<svg xmlns="http://www.w3.org/2000/svg" xmlns:xlink="http://www.w3.org/1999/xlink" viewBox="0 0 640 641.29"><defs><clipPath id="clip-path"><rect width="640" height="641.29" fill="none"/></clipPath></defs><title>berkshire-map-localities</title><g style="isolation:isolate"><g id="Layer_3" data-name="Layer 3"><g clip-path="url(#clip-path)"><g style="mix-blend-mode:multiply"><path d="M379.5,516.25l-10.77.22,0.34,2.76-9.51,3.36,0,0.09-11.13,3.63v0.37l-11.89.61-1.14,1.16v0.1l-0.51-.09-1.11,1,1.15,1.07,0.13,1,3.39,1.81,0.48,1.45-6.61,1.67a1.79,1.79,0,0,0-1.22,2.4l18.75,47a1.79,1.79,0,0,0,1.52,1.12l4.68,0.38a1.79,1.79,0,0,1,1.23,2.93l-18.13,21.7,0.06,0L337.7,617a1.79,1.79,0,0,1-1.6,1.25l-20.35,1.23-0.53.61-15.32-.53a1.79,1.79,0,0,0-1.35.54l-2.87,2.95a1.79,1.79,0,0,1-1.19.54l-6.44.35-0.31-.56-0.83-.17-0.37-1.47-2.71.36L283,620.62l0.42-.53v-0.25l-2.16-1-0.95.47-0.49,1.43-4.67-3.23a1.79,1.79,0,0,0-1.67-.19l-2.3.9-1.51-.64-0.32.21-4-1.47v-0.12l0.31-.29,0-.23-2-1.32a1.79,1.79,0,0,0-1.72-.14l-2.43,1.09a1.79,1.79,0,0,1-1.48,0l-16.71-7.68,0.83-1-0.24-1.77,1-.83-0.09-.1,1.14-2.09,0.16,0,0.62-1,0.15,0,3.16-9.46-0.08-.08,0.37-.58,0.11,0,0.88-1.54-0.06-.11,2.8-5.54-0.08-.09,1.28-2.08,0.09,0,2.58-5.77-1-.86-0.13.06-1.13-.64v-0.11l-40.85-21.4a1.79,1.79,0,0,1-1-1.52l-0.22-5.93a1.79,1.79,0,0,1,.51-1.32l6.29-6.44-0.15-.09,0.43-.56,0.83,0.14,0-1.51,8.66-7.53-0.82-1.81L244,503.83l-0.19-.34,0.22-.11v-0.15l-35.8,3.7a1.79,1.79,0,0,1-2-1.79l0-6.11a1.79,1.79,0,0,1,1.09-1.64l0.86-.36a1.79,1.79,0,0,0,.88-2.49L206,488.72l0,0-1.29-16.61-3,.72-0.12-1.86-2-.11,0.09-3.31h1.44l0.24-2.35,1.84-1.16-1-5.91,0.74-.38,0.21,0.24,0.15-.12v-0.07l12.32,7.92a1.79,1.79,0,0,0,2.56-.7l2.56-5.05a1.79,1.79,0,0,0-.26-2L219,456.2l-0.12.05-22.41-18.84-0.28.14-0.08-.09-0.57-.1,21-19.06a1.79,1.79,0,0,1,1.34-.46l5.75,0.43a1.79,1.79,0,0,0,1.66-.86l27.39-45.18a1.79,1.79,0,0,1,.94-0.76l2.48-.87,0-.87-1.44-.9,0.17,1.71-3.17.87,0,0.78-7.19,3.53a1.79,1.79,0,0,1-1.2.14l-4-.93,0-.1-7.49-6a1.79,1.79,0,0,1-.41-2.34l1.13-1.83-2.24-1.83,4.32-.83,0.63-.87L235.15,358a1.79,1.79,0,0,1,1.43-1.85l0.26-.05a1.79,1.79,0,0,0,1.43-1.88l-0.44-6.29,0,0,1.28-6.15a1.79,1.79,0,0,1,1.5-1.41l9.53-1.38,0.21-1,4.43-.08a1.79,1.79,0,0,0,1.69-2.27l-1.77-6.32,1.3-.72,0.51,1,10.69-11.27a1.79,1.79,0,0,1,3.09,1.23v4l-1.5,1.46,0.14,7.72a1.79,1.79,0,0,0,.46,1.17l10.71,11.92a1.79,1.79,0,0,1-.52,2.79L261.2,357.9a1.79,1.79,0,0,0-.87,2.19l3.1,8.81a1.79,1.79,0,0,0,1.21,1.13l3,0.84,1.62-.75,0.11,0.09,0.07,1.06,0.93,0.41-2.06,2.57a1.79,1.79,0,0,0-.31,1.66l0.58,1.83a1.79,1.79,0,0,0,2.31,1.14l11.84-4.23,0.09,0.38,5.88-1.71,0-.21,2.22-.36,1.67,6.72,0.91-.06,0.12,0.9-0.75.91,0.19,1.22-0.66.47L297.11,394l-0.43.37,1.45,0.88,1.07-.65,0.07,0.14,0.25-.17,0.54,1.41,0.59-.34,0-.37,0.62-.3-0.66,5.49a1.79,1.79,0,0,0,.51,1.48l5.48,5.46,0.12-.9,0.74,0.67L309,406a1.79,1.79,0,0,1,2-.15l8.2,4.64a1.79,1.79,0,0,0,2.4-.6h0a1.79,1.79,0,0,1,2.24-.68l12.69,5.64V415L327,418.23v0l6.26,3.45,0.15-.06,13.15,32.71a1.79,1.79,0,0,0,1.45,1.11l18.34,2.21a1.79,1.79,0,0,1,1.55,1.48l0.45,2.67-0.09.07,0.5,0.84-0.1.1,1.51,3.64,0.15,0.07,1.2,18.8,0.06,0-0.06,1.26,0.13,0,0.18,1.28-0.06,0-0.44,5.72-0.11.06,8.35,22.49h0Z" fill="#f0e6cd"/><path d="M577.12,457.43l1.94,49a1.79,1.79,0,0,1-1.5,1.84l-2.38.39a1.79,1.79,0,0,1-1.21-.23L528,480.72a1.79,1.79,0,0,0-2.55.78l-7.8,16.86h0L506,517.59a1.79,1.79,0,0,0,.11,2L539.65,563a1.79,1.79,0,0,1-.57,2.67L469.4,602.89a1.79,1.79,0,0,1-2.6-1.92l6.14-31.66a1.79,1.79,0,0,0-.51-1.62l-11.81-11.55a1.79,1.79,0,0,1,.33-2.82l6.11-3.64a1.79,1.79,0,0,0,.84-1.86l-2.19-11.94a1.79,1.79,0,0,1,1.53-2.1l3.48-.45a1.79,1.79,0,0,0,1.45-2.4L470,525a1.79,1.79,0,0,1,.33-1.8l4.89-5.62a1.79,1.79,0,0,1,1.32-.62l1.13,0a1.79,1.79,0,0,0,1.43-.75l1.27-1.8a1.79,1.79,0,0,0-.08-2.18l-2.87-3.45a1.79,1.79,0,0,1-.41-1.18l0.06-2.72a1.79,1.79,0,0,1,1.34-1.69l2.35-.61a1.79,1.79,0,0,0,1.31-2l-0.28-1.68,1.91-.36-1.49-.58,1.38-51.27-0.21-.2,0.19-1.8-3.15-3.66,0-.08-0.55-.25-2.14-11.2-2.14.58,3.22-11a1.79,1.79,0,0,1,2.15-1.24l2.88,0.71,0.28-2,31.92,5.21,0.12,0.44,0.17-.09,9.94,8.45a1.79,1.79,0,0,0,2.47-.14l6.5-7a1.79,1.79,0,0,1,1.54-.55l6.79,0.88a1.79,1.79,0,0,1,1.54,2l-3.68,27.94a1.79,1.79,0,0,0,1.68,2l34,1.75h0Z" fill="#ede4ca"/><path d="M467.33,512.69l-2.07,2.92a1.79,1.79,0,0,1-1.43.75l-1.13,0a1.79,1.79,0,0,0-1.32.62l-4.89,5.62a1.79,1.79,0,0,0-.33,1.8l2.21,6a1.79,1.79,0,0,1-1.45,2.4l-3.48.45a1.79,1.79,0,0,0-1.53,2.1l2.19,11.94a1.79,1.79,0,0,1-.84,1.86l-5.87,3.5a1.79,1.79,0,0,0-.19,2.95l8.79,6.91a1.79,1.79,0,0,1,.67,1.6l-4.19,38.18a1.79,1.79,0,0,1-2,1.58l-30.08-4.26a1.79,1.79,0,0,0-1.94,1.18l-4.31,12.29a1.79,1.79,0,0,1-2,1.18L404.23,613a1.79,1.79,0,0,0-2.07,1.65l-0.09,1.28a1.79,1.79,0,0,1-1.86,1.67l-25.15-1.1,0.6-1.21-12.54,2.3a1.79,1.79,0,0,1-2-1.24l-3.27-10.71a1.79,1.79,0,0,1,.49-1.83l1.63-1.53a1.79,1.79,0,0,0-1.08-3.09l-4.09-.34a1.79,1.79,0,0,1-1.52-1.12l-18.75-47a1.79,1.79,0,0,1,1.22-2.4l3.61-.91a1.79,1.79,0,0,0,.85-3l-3-3.12,1.11-1,0.51,0.09,1.13-1.26,11.89-.61v-0.37l11.13-3.63,0-.09,7.63-2.7a1.79,1.79,0,0,1,2.34,1.28l0.65,2.73a1.79,1.79,0,0,0,2.38,1.26l25-9.61a1.79,1.79,0,0,0,1.06-1.11l4.47-13.41a1.79,1.79,0,0,0-.77-2.1l-1.69-1a1.79,1.79,0,0,1-.86-1.58l0-.65a1.79,1.79,0,0,0-1.26-1.76l-0.41-.13a1.79,1.79,0,0,1-.26-3.31l15.65-7.8-0.07-.33,2.22-1.31a1.79,1.79,0,0,1,1.21-.22l5.13,0.86,0.08-1,2.48,0.71v0.76l7.4-1.72-0.11-.53,0.71-.28L436,491l1.36,0.21-1.7,3.61,2.82,1,0.23-.46,1.55,0.36-2,4.2a1.79,1.79,0,0,0,1.37,2.56l6.07,0.82,0-.16,12.58,1.23,0-.08,3.79,0.13a1.79,1.79,0,0,1,1.54,1l3.64,7.29h0Z" fill="#f0e6cd" opacity="0.6"/><path d="M229.19,396.87L226.08,403a1.79,1.79,0,0,1-2.56.7l-12.32-7.92v0.07L211,396l-0.21-.24-0.74.38,1,5.91-1.84,1.16L209,405.54h-1.44l-0.09,3.31,2,0.11,0.12,1.86,3-.72,1.24,15.9a1.79,1.79,0,0,1-.39,1.27l-14.2,17.54,0.33,0.6-3.4,8.31,0.55,1.43-2.52.77,0.42,2.16-0.2.09,0.19,0.61-3.29,1.32,0,0.36-7.57,3.23-0.08-.17-2.21.7-0.35-3.16,0.38-.05-0.25-1.82-5.14.32a1.79,1.79,0,0,1-1.79-1.17l-0.61-1.65,0.33-.67-3.93-6.76a1.79,1.79,0,0,1,0-1.86l0.28-.44a1.79,1.79,0,0,0-1-2.67l-1.36-.41-0.15-1-0.3-.19-11,4.39a1.79,1.79,0,0,1-2.35-1.08l-2.37-6.86a1.79,1.79,0,0,0-.95-1l-1.41-.65a1.79,1.79,0,0,1-1-1.48l-0.66-7.9a1.79,1.79,0,0,0-.5-1.1l-1.76-1.81A1.79,1.79,0,0,1,145,424l-0.09-1.78-3.09.14-0.65-.9-0.26,0-0.09.17,0.37,0.43-1,.58-0.72-.37-0.06-.2,0.56-.36L140,420.41l-0.28-.06-1.6,1.71-0.52-.26-0.13-.44-0.49.15-0.19.36-0.65.11-0.57-.61-1.24.25-0.5-.77,0.2-.08-0.12-.68-0.25-.22-9.35.18-0.25-.31,0.15-3-0.07,0-0.57-5.84h-0.09l-1.5-4.76a1.79,1.79,0,0,0-2.12-1.21l-1.88.44,0.56-1.89L109.41,391a1.79,1.79,0,0,0-2.09-.62L95.24,395a1.79,1.79,0,0,1-1.71-.23l-1.38-1a1.79,1.79,0,0,1-.72-1.33L91.22,389l1.37-.16,0.92-2-0.94-.7,1.2-1.82-6.06-5.78a1.79,1.79,0,0,1,.1-2.68l2.79-2.3a1.79,1.79,0,0,0,.64-1.2l0.21-2.07a1.79,1.79,0,0,1,1.34-1.55l2.43-.62,0-.46h0.37l0.09-1.56L95.44,366l0.45-2.18,0.45,0.28,0.39-2-0.3-.26,0.32-.61,0.35-.15,0.22-.64L97,360l7.21-9.53-1.06-1.11,0.24-.32,23.08,14.33a1.79,1.79,0,0,0,1.5.18l9.55-3.14-1-2.92,0.28-.09-0.35-3.23h-0.12l-0.11-.13v-0.17l1.29,0.24-0.38-1.1,0.55-.67,0.13,0.1,1.11-.66,0.73,0.31v-0.52l-2.48-1.14,0.14-.19,3.41,0.2,0.51-2.08,2.61-.38,1.95-10.61-1.09,0-0.81.81-0.33-1.7,0.7-.08,0-1.1,2.16-.59,0.18-1.21h-0.14l-0.54-1.61,0.92-.4L145.75,330l1.12-.68,0.37,0.49,3.6-1.72-0.65-1.38,1.06-.65,1.75,1.4a1.79,1.79,0,0,0,1.31.38l13.77-1.51-0.43-2.52,0.31-.06-0.07-.5-0.87-.38,1.74-1.3-0.07-.25,0.2-.13,0.13,0.12,1.45-.2,1,1.28a1.79,1.79,0,0,0,2.71.06l3.37-3.75-0.73-1.64,0.9-.86,0.53,1.18,0.88-.76,0.24,0.27,0.29-.26,0-.09,0.45-.54,0.45,0.41,2.8-1.65-0.63-1.08,2.3-1.33,0.19,0.05,0.2-.37,0.29,0.24,0.29-.68,5.3-.21,1,1.78,0.13-.06,1.28,1.23-0.57.67,2.58,3.65-0.36.22L200.7,323l0.66-1,2.56,1.57-1.08,1.61,2.42,3.12,0.64-.33,1.3,2.92-1.19.54,5,10.5a1.79,1.79,0,0,1-.69,2.31l-5.43,3.27L206,350l-2,1.84a1.79,1.79,0,0,0-.43,2l2.18,5L203.44,360l0.48,1.12-0.58.56v0.54l-6.57-.36,0.57,1.44,0.45,0-0.07,3,0.2,0.12-0.1,1.09-0.7.05-0.24,1.73,5.83,2.2a1.79,1.79,0,0,1,1.1,2.11l-0.17.68a1.79,1.79,0,0,0,.61,1.82l22.46,18.18,0.12-.05,2.35,2.66h0Z" fill="#f0e6cd" opacity="0.6"/><path d="M622.11,340.19l-2.43,12,1-.19-0.08,7.43,0.08,0.05-0.64,2.14h-0.12l-2.88,5.18,0.13,0.4L597.75,374l0.29,0-3,27.78a1.79,1.79,0,0,1-2,1.59l-1.71-.18,0.68,1.39-2.37,4.26a1.79,1.79,0,0,1-2.85.37l-3.63-3.77a1.79,1.79,0,0,0-2.42-.14l-10.26,8.41a1.79,1.79,0,0,1-1.77.29l-7.57-2.89a1.79,1.79,0,0,1-1.15-1.8l1.21-16.44a1.79,1.79,0,0,0-.56-1.44l-20.89-19.59a1.79,1.79,0,0,0-2-.3l-2.49,1.21,0,0-2.45,8-0.58.08-0.58,2.79a1.79,1.79,0,0,1-1.49,1.41l-6.56,1-0.17,1.16-1.26,0-2.33-2.38a1.79,1.79,0,0,0-1.46-.53l-5,.51,0.08-.38-2-.65a1.79,1.79,0,0,1-.78-2.9l0.4-.45a1.79,1.79,0,0,0-.08-2.48l-1.27-1.24v0.33l-7.48-1.84a1.79,1.79,0,0,1-1.13-.85l-1.53-2.69a1.79,1.79,0,0,0-1-.82l-1.68-.54-0.67-1.08-5.32-.55-0.07.08V369l-0.14,0-0.08.49-0.71,0-0.82-.69,0.15-1.65,0.41-.14,0.33-6.84a1.79,1.79,0,0,0-2.47-1.74l-8.51,3.5V362l-0.59,0,0-.38-1.87-.51L476.7,360l0.52,0.12,0.14-3.15a1.79,1.79,0,0,0-1.53-1.85l-3-.43a1.79,1.79,0,0,1-1.53-1.83l0-.59a1.79,1.79,0,0,1,2-1.73l1.93,0.19,0.05-2.74,1.65,0,0.08-.33-0.14-.13,0.19-.21-0.11-.52,0.52-.49-0.2-.2,0.46-2.77-1.07-.4-1-11.89-0.75-.07-0.28-2.21-2.05.09-0.75-.73-0.16.05-0.37-.3-1.13.17-0.3-1.57-0.34-.28-0.89.13v-0.37l0.5-.07-1.11-14.34,0.5,0.38,6.12-3.2v-0.27l-0.35-.37,0.13-.08L475,308l0.26-.42,0.29,0,0.19,0.66,0.24,0.14,1-1v-0.13l5-4.89,0,0,2.4-5.59a1.79,1.79,0,0,1,1.1-1l4.61-1.47-0.13.85,0.44,0.06-0.12.8,0.64,0.35-0.15.31h0.09v0h0.31v0.19l-0.19.05h0.08l0,1-0.1,0,0,0.57h0.09v0.55h0l-0.44,2.16h-0.08v0.54l-0.94,0-0.08.26-1.71.18-0.17.39,0.72,0.16v0.69l10.35-.6a1.79,1.79,0,0,0,1.68-1.87l-0.4-8.33a1.79,1.79,0,0,1,2-1.86l8.85,1.06,0,0.11,1.81-.35,0.21,0.93,0.45-.08-0.33,3.55,1.55,0.32,0.51,1.2,1.22-.33,0.44,1.41L519,298l0.32,0.93,0.59-.22,0.59,1.85,1.75-.5,0.91,1.52a1.79,1.79,0,0,0,2.09.78l1.27-.41a1.79,1.79,0,0,1,2.32,1.39l0.14,0.81a1.79,1.79,0,0,0,1.29,1.42l8.85,2.4a1.79,1.79,0,0,1,1.32,1.76l0,2.45,1.09-.24-0.08.54,1-.21L542.3,315l5.83-.1,0.13,2.62,0.35,0,0.93-.92,7.54-.31a1.79,1.79,0,0,1,1.71,1.06l3,6.81a1.79,1.79,0,0,0,1.48,1.06l6.72,0.6h0l2.22-1.1,3.23,6.26-0.65,2.11,0,0-0.58,1.62a1.79,1.79,0,0,0,1.59,2.39l26.89,1.5v0.05l0.65-.09,0,0.91h0.25l0.61-1.07,15.17-1.77,0.11,0.33,0.15,0v0.23l0.09,0,0.11-.16,1.62,1,0.58,2.12h0Z" fill="#f0e6cd" opacity="0.6"/><path d="M190.91,549.32l-0.14.26-0.22,0,0,0.46-11.24,3.42-0.06.15,3.9,4.52a1.79,1.79,0,0,1,.36,1.67l-6.15,21.13,0.39,0,2.58,4.56a1.79,1.79,0,0,1,.11,1.53l-0.94,2.43-0.89-.31,0.79-1.5-1.3-.09v-1.63l-0.54-.32-2.2,1.14-0.37-.59-1.5,1.11-0.3-.06-0.65.46,0.17,0.5-1.84.51-0.38.81-0.93-.24-0.23.36-0.64-.08-1,.8-0.82-.31L165.66,591l-0.71-.15-0.3-.51-0.36-.11-0.38,1-0.4,0-0.57-.79-0.33,0-0.42.49,0.12,0.3-0.16.24-0.49-.28-1.65.68-0.13-.16,0.07-.33-0.44-.12-0.1.18,0.14,0.58-0.06.12-0.19,0-0.21-.2L159,592l-0.11.4-0.83.08-0.09.13,0,0.42,0,0-1.63.11L155.75,592l-0.54.18-0.11-.07,0-.2-0.65-.21-0.13-1.35H154l-0.42.81-0.88.1-0.13-.17,0.1-.25-0.58-.27,0-.56-1.1-.57-0.34-1.81-0.23-.18-0.1,0-0.13.29-1.28-.74v-0.11l0.79-.51,0.14-1.62-0.17-.18-0.81.77-0.28-.09-0.36-1.58-0.51-.34-1.83.56-1-.69-0.08.14,0.06,0.16-0.07.09-1.94-.25-0.91,1.12-0.18-.08-0.22-.47h-0.12l-0.08-.14,0.07-.33-2.85.45-0.71-.43-0.63.59L137,584l-1.18.86,0.29,2.25-0.85.49,0,0.49-0.61.09-1.89,2.41-0.12-.07,0.06-.27-0.14-.1-0.45.17-0.08-.09,0-1.37-0.15-.19-0.26,0-0.17-.15,0.18-1.11-0.62-.13-0.18.14-0.78-.82-0.31.27-0.23-.39-1.29,0-0.16.37-4.18.61-0.07.23,0.14,0.17-0.15.66,0.33,0.65-0.43.24-0.31.87-0.21,0-3.28,2.7-0.29-.21-0.87.24,0.07,0.38,0,0H117.2l-1.09-1.52-0.43.31-0.18,0-0.07-.5-1.14-.79L110,592.65l-0.54-.23-0.13.14,0.29,0.4-0.27.3-0.15,0-0.16-.19-0.33,0-0.41.29-2.65-.57-0.65.43-0.48-.1,0-.24,0.33-.38v-0.05l-0.87.15-0.32-.23,0-.3-0.08-.1h-0.2l-2.26-1.75V590l0.21-.14,0-.13-0.47-.51-2,.08,0.05-.27-0.37-.29L98,589l-0.06,0,0.06-.44-0.78-.43V587.8l-0.7-.15-0.25.49-0.6-.05-0.62.63-1,.07,0.07,0.41-0.08.08L93.17,589l0.2-.42-7.68.16L85,588.19l-0.15.28-2-.29-0.19.15-3.31-.61v0l-0.66-.19-0.26-.41-1.51-.32-0.08-.58H76.48l-0.06-.06,0.06-.34-0.78-.4-3.19.66-0.39-.58-6.46,1.31-1.19,1.57-0.28,0-0.17.2-2.2-.76L61.36,587l-1.72,1.25-0.11.41-1.18.17-0.12.32-0.16.09-0.47-.57-1.79,1.26-0.27-.29-3.86,1.65L51,593.14l-2.31.72-0.34-.16-0.23.08,0,0.26-0.17.12-0.31-.09-0.13-.4-0.24-.13-1,1.59-1.41-.49-0.59.26L44,594.49l-0.65,0v0l0.08,0.29-0.09.17-0.29,0-0.06.41,0,0-3.21-.81-0.52.36-0.4-.13-0.68.31-0.54,1.1-0.39-.07-0.38.48-0.56-.09-1.81,1.74L34,598.15l-0.18.34-2.7-1.1-1.25,1.09-2-.51-0.05.22-0.08,0L27,597.46l-2.81.21-0.53.64-0.68,0L22.76,598l-0.11,0-0.45.51-3.18-1-0.24-.38-0.74.2-0.44-.23,0-.26-0.24-.21-9,1.26,0-.22-0.2-.11-1.85,1.21-0.47-.25-0.27.07v-0.31l-1.09.08-0.37-.29V598l-1.47.18,0,0.58-4.16-.43-0.16-.3-0.19,0L-2,597.78l-1.16-.42-0.23.13-0.65-.39h0l-10.13-1.61a1.79,1.79,0,0,1-1.48-2.07l1.45-8.53,0.11-.07,0-.36-0.3-.13L-14.6,573.9l-0.36-.22,0.55-7.63a1.79,1.79,0,0,1,1.71-1.66l3.84-.17,0.76-1,2.59,0.92,1.47-1-2.26-2.56a1.79,1.79,0,0,1-.3-1.89L-3,550.2a1.79,1.79,0,0,0-.14-1.68l-1.36-2.11-1.07-.18,0.91-2,3.45-.62-34.94-7.72-0.11.2-0.25,0-3.17-16.81-2.53-.2,4.73-20.33a1.79,1.79,0,0,1,2.1-1.35l3.13,0.64,0.92-1.09,11.57,5.48a1.79,1.79,0,0,0,1.44,0l10.74-4.39L-5.71,500,4.68,485.43l0.08,0.06L21,476.09l0.67,2.26h0l3,4a1.79,1.79,0,0,0,1.91.66l5.88-1.59,0.56-1.81,1.69-1a1.79,1.79,0,0,1,1.45-.18L38,479a1.79,1.79,0,0,0,2.26-1.26l1.15-4.39,2.54-.06,1.11,5a1.79,1.79,0,0,0,2,1.38l3.67-.61,0,0.11,3.94-.64,0-.09,10.61-3.65,0-.13,1.17-.14,0.17,0.42L67,475.07l0.9-3.08a1.79,1.79,0,0,1,2-1.26l5.85,1a1.79,1.79,0,0,0,1.76-.71l4.17-5.74a1.79,1.79,0,0,1,2.59-.33l11.28,9.3,0.69-.29,1.39,0.72L100.9,467l0.23-.07L105,450.33l-1.49-.41,0.94-5,0.8,0.18,13.79,24.63,0.33-.51,1.53,0.62a1.79,1.79,0,0,0,2-.46l0.79-.88a1.79,1.79,0,0,1,1.4-.59l5.38,0.19,0.25,0.37-2.13,1.13-0.85,3.85a1.79,1.79,0,0,0,.47,1.64l2.23,2.28-0.06.11,4.44,5.54,1.3-.34,0.83,0.55-1.47,1.11,5,6a1.79,1.79,0,0,0,2.31.39l0.76-.46a1.79,1.79,0,0,1,1.92,0L157.2,498a1.79,1.79,0,0,1,.78,1.73l-0.37,2.79a1.79,1.79,0,0,0,.38,1.35l3.65,4.58,0.09,0,0.32,0.62,0,0.11,4,0.6,0.77,1,0.08-.08,9.59,0.16,0,0.08,4.17-1.43-3,17.5a1.79,1.79,0,0,1-1.28,1.42l-2.23.63-0.13,2-0.28,0,0.5,3.22,2.95-.31-1.27,8.11,1.73,0.9a1.79,1.79,0,0,1,.91,1.15l0.49,1.94a1.79,1.79,0,0,0,2.41,1.22l5.29-2.16,0.71,0.56-1,2.21,0.12,0.27,4.32,1.12h0Z" fill="#ede4ca"/><path d="M630.77,407.23l-3.87,10.43A1.79,1.79,0,0,0,627,419l2,4.35-0.65.73-0.68-.31L624,425.29l0.31,1.1-0.83.56,0.13,1.93L608,433.29a1.79,1.79,0,0,0-1.08.86L598.75,449l-1.1-.34-2.58,5.86a1.79,1.79,0,0,1-1.64,1.07H583.07l-0.44.5-1.79-.58a1.79,1.79,0,0,0-1.42.14l-28.6,16a1.79,1.79,0,0,1-2.66-1.43l-1.91-24.75a1.79,1.79,0,0,0-1.55-1.64l-7.13-.93a1.79,1.79,0,0,0-1.54.55l-6.87,7.37a1.79,1.79,0,0,1-1.9.47l-42.35-14.74-0.28,2-3.11-.77a1.79,1.79,0,0,0-2.06,1l-3.75,8.18H475.5L469.71,458l0,0.09-22.5-3.33,0.05-.2-9-5.08a1.79,1.79,0,0,1-.86-2l1.33-5.4a1.79,1.79,0,0,1,1.2-1.28l3.24-1,0.78-1.3,0.67,0.09,2.3-11.88H447l0.26-2.1-3.13.3a1.79,1.79,0,0,1-1.95-2l1.35-10.35,0.11,0-1.82-12.44-2.23-.7,25.14-19.08L464.44,379l0.33-.53-5.29-6.81a1.79,1.79,0,0,1,.81-2.79l26.16-9.31,0.44-.93h0l0.35-2.27,20.63,6.17,1-.78v0l4.08-2.72-0.73-1.66L515.3,356l0.28,0.27,1.79-.11-0.07-.39,2-.25-0.14-.2,3.41-2.45a1.79,1.79,0,0,1,2.48.39l1.52,2a1.79,1.79,0,0,0,1.27.72l8.68,0.82,0.22,1.77,2.11,0.19-0.05,4.55a1.79,1.79,0,0,0,1.53,1.79l3,0.43a1.79,1.79,0,0,1,1.53,1.85l-0.14,3.15-0.52-.12-0.27,1.23,1.87,0.51,0,0.38,0.59,0V372.5l8.51-3.5a1.79,1.79,0,0,1,2.47,1.74l-0.33,6.84-0.44.18-0.14,1.59L557.3,380h0.75l0.08-.49,0.14,0,0-.28,4.62,0.31,0.35,0.34,0.42-.1,0.6,1,2.28,0.64,2,3.44a1.79,1.79,0,0,0,1.12.84l7.49,1.84v-0.33l1.27,1.24a1.79,1.79,0,0,1,.08,2.48l-0.4.45a1.79,1.79,0,0,0,.78,2.9l2,0.65-0.08.38,6.42,0.13a1.79,1.79,0,0,1,1.28.58l1.62,1.76,0.78-.1,0.17-1.16,6.46-.88a1.79,1.79,0,0,0,1.5-1.38l0.66-2.92,0.58-.08,2.45-8,0,0,3.54-1.33a1.79,1.79,0,0,1,2,.47l22.49,24.75h0Z" fill="#ede4ca"/><path d="M597.44,438.38l-2.51,7.43a1.79,1.79,0,0,1-.74.94l-48.93,30.93a1.79,1.79,0,0,1-2.39-.45l-27.12-36.55a1.79,1.79,0,0,1-.09-2l11.63-19.24h0l7.88-17a1.79,1.79,0,0,1,2.42-.85l62.26,30.64a1.79,1.79,0,0,1,.56,2.78l-2.95,3.38h0Z" fill="#e8dec6"/></g><path d="M369,386.14l-10.77.22,0.34,2.76-9.51,3.36,0,0.09L338,396.18v0.37l-11.89.61-1.14,1.16v0.1l-0.51-.09-1.11,1,1.15,1.07,0.13,1,3.39,1.81,0.48,1.45-6.61,1.67a1.79,1.79,0,0,0-1.22,2.4l18.75,47a1.79,1.79,0,0,0,1.52,1.12l4.68,0.38a1.79,1.79,0,0,1,1.23,2.93L328.69,482l0.06,0-1.56,4.91a1.79,1.79,0,0,1-1.6,1.25l-20.35,1.23-0.53.61-15.32-.53A1.79,1.79,0,0,0,288,490L285.17,493a1.79,1.79,0,0,1-1.19.54l-6.44.35-0.31-.56-0.83-.17L276,491.65l-2.71.36-0.83-1.51,0.42-.53v-0.25l-2.16-1-0.95.47-0.49,1.43-4.67-3.23a1.79,1.79,0,0,0-1.67-.19l-2.3.9-1.51-.64-0.32.21-4-1.47v-0.12l0.31-.29,0-.23-2-1.32a1.79,1.79,0,0,0-1.72-.14l-2.43,1.09a1.79,1.79,0,0,1-1.48,0l-16.71-7.68,0.83-1-0.24-1.77,1-.83-0.09-.1,1.14-2.09,0.16,0,0.62-1,0.15,0,3.16-9.46-0.08-.08,0.37-.58,0.11,0,0.88-1.54-0.06-.11,2.8-5.54-0.08-.09,1.28-2.08,0.09,0,2.58-5.77-1-.86-0.13.06-1.13-.64V444l-40.85-21.4a1.79,1.79,0,0,1-1-1.52L201,415.12a1.79,1.79,0,0,1,.51-1.32l6.29-6.44-0.15-.09,0.43-.56,0.83,0.14,0-1.51,8.66-7.53L216.82,396l16.63-22.28-0.19-.34,0.22-.11v-0.15l-35.8,3.7a1.79,1.79,0,0,1-2-1.79l0-6.11a1.79,1.79,0,0,1,1.09-1.64l0.86-.36a1.79,1.79,0,0,0,.88-2.49l-3.11-5.81,0,0L194.23,342l-3,.72-0.12-1.86-2-.11,0.09-3.31h1.44l0.24-2.35,1.84-1.16-1-5.91,0.74-.38,0.21,0.24,0.15-.12v-0.07l12.32,7.92a1.79,1.79,0,0,0,2.56-.7l2.56-5.05a1.79,1.79,0,0,0-.26-2l-1.54-1.74-0.12.05L186,307.3l-0.28.14-0.08-.09-0.57-.1,21-19.06a1.79,1.79,0,0,1,1.34-.46l5.75,0.43a1.79,1.79,0,0,0,1.66-.86l27.39-45.18a1.79,1.79,0,0,1,.94-0.76l2.48-.87,0-.87-1.44-.9,0.17,1.71-3.17.87,0,0.78L234,245.58a1.79,1.79,0,0,1-1.2.14l-4-.93,0-.1-7.49-6a1.79,1.79,0,0,1-.41-2.34l1.13-1.83-2.24-1.83,4.32-.83,0.63-.87-0.17-3.17a1.79,1.79,0,0,1,1.43-1.85l0.26-.05a1.79,1.79,0,0,0,1.43-1.88l-0.44-6.29,0,0,1.28-6.15a1.79,1.79,0,0,1,1.5-1.41l9.53-1.38,0.21-1,4.43-.08a1.79,1.79,0,0,0,1.69-2.27l-1.77-6.32,1.3-.72,0.51,1,10.69-11.27a1.79,1.79,0,0,1,3.09,1.23v4l-1.5,1.46,0.14,7.72a1.79,1.79,0,0,0,.46,1.17l10.71,11.92a1.79,1.79,0,0,1-.52,2.79l-18.34,9.38a1.79,1.79,0,0,0-.87,2.19l3.1,8.81a1.79,1.79,0,0,0,1.21,1.13l3,0.84,1.62-.75,0.11,0.09,0.07,1.06,0.93,0.41-2.06,2.57a1.79,1.79,0,0,0-.31,1.66l0.58,1.83a1.79,1.79,0,0,0,2.31,1.14l11.84-4.23,0.09,0.38,5.88-1.71,0-.21,2.22-.36,1.67,6.72,0.91-.06,0.12,0.9-0.75.91,0.19,1.22-0.66.47,4.72,11.09-0.43.37,1.45,0.88,1.07-.65,0.07,0.14,0.25-.17,0.54,1.41,0.59-.34,0-.37,0.62-.3-0.66,5.49a1.79,1.79,0,0,0,.51,1.48l5.48,5.46,0.12-.9,0.74,0.67,1.51-1.18a1.79,1.79,0,0,1,2-.15l8.2,4.64a1.79,1.79,0,0,0,2.4-.6h0a1.79,1.79,0,0,1,2.24-.68L326,284.73v0.2l-9.56,3.19v0l6.26,3.45,0.15-.06L336,324.25a1.79,1.79,0,0,0,1.45,1.11l18.34,2.21a1.79,1.79,0,0,1,1.55,1.48l0.45,2.67-0.09.07,0.5,0.84-0.1.1,1.51,3.64,0.15,0.07,1.2,18.8,0.06,0-0.06,1.26,0.13,0,0.18,1.28-0.06,0-0.44,5.72-0.11.06L369,386.14h0Z" fill="#3cc2b5"/><path d="M587.12,350l1.94,49a1.79,1.79,0,0,1-1.5,1.84l-2.38.39A1.79,1.79,0,0,1,584,401L538,373.33a1.79,1.79,0,0,0-2.55.78L527.66,391h0L516,410.2a1.79,1.79,0,0,0,.11,2l33.5,43.43a1.79,1.79,0,0,1-.57,2.67L479.4,495.5a1.79,1.79,0,0,1-2.6-1.92l6.14-31.66a1.79,1.79,0,0,0-.51-1.62l-13.08-11.55c-0.84-.82.59-2.22,1.6-2.82l6.11-3.64a1.79,1.79,0,0,0,.84-1.86l-2.19-11.94a1.79,1.79,0,0,1,1.53-2.1l3.48-.45a1.79,1.79,0,0,0,1.45-2.4l-2.21-6a1.79,1.79,0,0,1,.33-1.8l4.89-5.62a1.79,1.79,0,0,1,1.32-.62l1.13,0a1.79,1.79,0,0,0,1.43-.75l1.27-1.8a1.79,1.79,0,0,0-.08-2.18l-2.87-3.45a1.79,1.79,0,0,1-.41-1.18l0.06-2.72a1.79,1.79,0,0,1,1.34-1.69l2.35-.61a1.79,1.79,0,0,0,1.31-2l-0.28-1.68,1.91-.36-1.49-.58,1.38-51.27-0.21-.2,0.19-1.8-3.15-3.66,0-.08-0.55-.25L487.75,322l-2.14.58,3.22-11a1.79,1.79,0,0,1,2.15-1.24l2.88,0.71,0.28-2,31.92,5.21,0.12,0.44,0.17-.09,9.94,8.45a1.79,1.79,0,0,0,2.47-.14l6.5-7a1.79,1.79,0,0,1,1.54-.55l6.79,0.88a1.79,1.79,0,0,1,1.54,2l-3.68,27.94a1.79,1.79,0,0,0,1.68,2l34,1.75h0Z" fill="#3bbfb2"/><path d="M229.19,127.61l-3.12,6.14a1.79,1.79,0,0,1-2.56.7l-12.32-7.92v0.07l-0.15.12-0.21-.24-0.74.38,1,5.91-1.84,1.16L209,136.28h-1.44l-0.09,3.31,2,0.11,0.12,1.86,3-.72,1.24,15.9a1.79,1.79,0,0,1-.39,1.27l-14.2,17.54,0.33,0.6-3.4,8.31,0.55,1.43-2.52.77,0.42,2.16-0.2.09,0.19,0.61-3.29,1.32,0,0.36-7.57,3.23-0.08-.17-2.21.7-0.35-3.16,0.38-.05-0.25-1.82-5.14.32a1.79,1.79,0,0,1-1.79-1.17l-0.61-1.65,0.33-.67L170.12,180a1.79,1.79,0,0,1,0-1.86l0.28-.44a1.79,1.79,0,0,0-1-2.67l-1.36-.41-0.15-1-0.3-.19-11,4.39a1.79,1.79,0,0,1-2.35-1.08l-2.37-6.86a1.79,1.79,0,0,0-.95-1l-1.41-.65a1.79,1.79,0,0,1-1-1.48l-0.66-7.9a1.79,1.79,0,0,0-.5-1.1l-1.76-1.81a1.79,1.79,0,0,1-.5-1.16L144.93,153l-3.09.14-0.65-.9-0.26,0-0.09.17,0.37,0.43-1,.58-0.72-.37-0.06-.2,0.56-.36L140,151.15l-0.28-.06-1.6,1.71-0.52-.26-0.13-.44-0.49.15-0.19.36-0.65.11-0.57-.61-1.24.25-0.5-.77,0.2-.08-0.12-.68-0.25-.22-9.35.18-0.25-.31,0.15-3-0.07,0-0.57-5.84h-0.09l-1.5-4.76a1.79,1.79,0,0,0-2.12-1.21l-1.88.44,0.56-1.89-9.09-12.47a1.79,1.79,0,0,0-2.09-.62l-12.08,4.63a1.79,1.79,0,0,1-1.71-.23l-1.38-1a1.79,1.79,0,0,1-.72-1.33l-0.21-3.38,1.37-.16,0.92-2-0.94-.7,1.2-1.82-6.06-5.78a1.79,1.79,0,0,1,.1-2.68l2.79-2.3a1.79,1.79,0,0,0,.64-1.2L91.46,101a1.79,1.79,0,0,1,1.34-1.55l2.43-.62,0-.46h0.37l0.09-1.56-0.23-.13,0.45-2.18,0.45,0.28,0.39-2-0.3-.26L96.74,92l0.35-.15,0.22-.64L97,90.72l7.21-9.53-1.06-1.11,0.24-.32,23.08,14.33a1.79,1.79,0,0,0,1.5.18l9.55-3.14-1-2.92,0.28-.09-0.35-3.23h-0.12l-0.11-.13V84.59l1.29,0.24-0.38-1.1,0.55-.67,0.13,0.1,1.11-.66,0.73,0.31V82.29l-2.48-1.14,0.14-.19,3.41,0.2,0.51-2.08,2.61-.38,1.95-10.61-1.09,0-0.81.81-0.33-1.7,0.7-.08,0-1.1,2.16-.59,0.18-1.21h-0.14l-0.54-1.61,0.92-.4-1.08-1.47,1.12-.68,0.37,0.49,3.6-1.72-0.65-1.38,1.06-.65,1.75,1.4a1.79,1.79,0,0,0,1.31.38l13.77-1.51-0.43-2.52L168,54.5,167.9,54,167,53.62l1.74-1.3-0.07-.25,0.2-.13L169,52.06l1.45-.2,1,1.28a1.79,1.79,0,0,0,2.71.06l3.37-3.75-0.73-1.64,0.9-.86,0.53,1.18,0.88-.76,0.24,0.27,0.29-.26,0-.09,0.45-.54,0.45,0.41,2.8-1.65-0.63-1.08,2.3-1.33,0.19,0.05,0.2-.37L185.73,43l0.29-.68,5.3-.21,1,1.78,0.13-.06,1.28,1.23-0.57.67,2.58,3.65-0.36.22,5.28,4.09,0.66-1,2.56,1.57-1.08,1.61L205.27,59l0.64-.33,1.3,2.92-1.19.54,5,10.5a1.79,1.79,0,0,1-.69,2.31l-5.43,3.27L206,80.74l-2,1.84a1.79,1.79,0,0,0-.43,2l2.18,5-2.29,1.07,0.48,1.12-0.58.56v0.54l-6.57-.36L197.36,94l0.45,0-0.07,3,0.2,0.12-0.1,1.09-0.7.05L196.9,100l5.83,2.2a1.79,1.79,0,0,1,1.1,2.11l-0.17.68a1.79,1.79,0,0,0,.61,1.82L226.73,125l0.12-.05,2.35,2.66h0Z" fill="#3dc4b7"/><path d="M642.11,80.53l-2.43,12,1-.19-0.08,7.43,0.08,0.05L640.06,102h-0.12l-2.88,5.18,0.13,0.4-19.45,6.79,0.29,0-3,27.78a1.79,1.79,0,0,1-2,1.59l-1.71-.18L612,145l-2.37,4.26a1.79,1.79,0,0,1-2.85.37l-3.63-3.77a1.79,1.79,0,0,0-2.42-.14l-10.26,8.41a1.79,1.79,0,0,1-1.77.29l-7.57-2.89a1.79,1.79,0,0,1-1.15-1.8l1.21-16.44a1.79,1.79,0,0,0-.56-1.44l-20.89-19.59a1.79,1.79,0,0,0-2-.3l-2.49,1.21,0,0-2.45,8-0.58.08L551.64,124a1.79,1.79,0,0,1-1.49,1.41l-6.56,1-0.17,1.16-1.26,0-2.33-2.38a1.79,1.79,0,0,0-1.46-.53l-5,.51,0.08-.38-2-.65a1.79,1.79,0,0,1-.78-2.9l0.4-.45a1.79,1.79,0,0,0-.08-2.48l-1.27-1.24v0.33l-7.48-1.84a1.79,1.79,0,0,1-1.13-.85L519.52,112a1.79,1.79,0,0,0-1-.82l-1.68-.54-0.67-1.08-5.32-.55-0.07.08v0.21l-0.14,0-0.08.49-0.71,0-0.82-.69,0.15-1.65,0.41-.14,0.33-6.84a1.79,1.79,0,0,0-2.47-1.74l-8.51,3.5v0.05l-0.59,0,0-.38-1.87-.51,0.27-1.23,0.52,0.12,0.14-3.15a1.79,1.79,0,0,0-1.53-1.85l-3-.43a1.79,1.79,0,0,1-1.53-1.83l0-.59a1.79,1.79,0,0,1,2-1.73L495.26,91l0.05-2.74,1.65,0,0.08-.33-0.14-.13,0.19-.21L497,87.07l0.52-.49-0.2-.2,0.46-2.77-1.07-.4-1-11.89L495,71.26,494.69,69l-2.05.09-0.75-.73-0.16.05-0.37-.3-1.13.17-0.3-1.57-0.34-.28-0.89.13V66.25l0.5-.07-1.11-14.34,0.5,0.38L494.7,49V48.74l-0.35-.37,0.13-.08L495,48.37l0.26-.42,0.29,0,0.19,0.66L496,48.7l1-1V47.61l5-4.89,0,0,2.4-5.59a1.79,1.79,0,0,1,1.1-1l4.61-1.47-0.13.85,0.44,0.06-0.12.8L511,36.75l-0.15.31h0.09v0h0.31v0.19l-0.19.05h0.08l0,1-0.1,0,0,0.57h0.09v0.55h0l-0.44,2.16h-0.08v0.54l-0.94,0-0.08.26-1.71.18-0.17.39,0.72,0.16v0.69l10.35-.6a1.79,1.79,0,0,0,1.68-1.87l-0.4-8.33a1.79,1.79,0,0,1,2-1.86L531,32.28l0,0.11,1.81-.35L533,33l0.45-.08-0.33,3.55,1.55,0.32,0.51,1.2,1.22-.33L536.85,39l2.18-.68,0.32,0.93,0.59-.22,0.59,1.85,1.75-.5,0.91,1.52a1.79,1.79,0,0,0,2.09.78l1.27-.41a1.79,1.79,0,0,1,2.32,1.39L549,44.49a1.79,1.79,0,0,0,1.29,1.42l8.85,2.4a1.79,1.79,0,0,1,1.32,1.76l0,2.45,1.09-.24-0.08.54,1-.21-0.2,2.73,5.83-.1,0.13,2.62,0.35,0,0.93-.92,7.54-.31a1.79,1.79,0,0,1,1.71,1.06l3,6.81a1.79,1.79,0,0,0,1.48,1.06l6.72,0.6h0l2.22-1.1,3.23,6.26-0.65,2.11,0,0-0.58,1.62a1.79,1.79,0,0,0,1.59,2.39L622.74,79V79l0.65-.09,0,0.91h0.25l0.61-1.07L639.46,77l0.11,0.33,0.15,0v0.23l0.09,0,0.11-.16,1.62,1,0.58,2.12h0Z" fill="#3dc4b7"/><path d="M164.48,423.07l-0.14.26-0.22,0,0,0.46-11.24,3.42-0.06.15,3.9,4.52a1.79,1.79,0,0,1,.36,1.67L151,454.66l0.39,0,2.58,4.56a1.79,1.79,0,0,1,.11,1.53l-0.94,2.43-0.89-.31,0.79-1.5-1.3-.09v-1.63l-0.54-.32-2.2,1.14-0.37-.59-1.5,1.11-0.3-.06-0.65.46,0.17,0.5-1.84.51-0.38.81-0.93-.24-0.23.36-0.64-.08-1,.8-0.82-.31-1.22,1.05-0.71-.15-0.3-.51-0.36-.11-0.38,1-0.4,0-0.57-.79-0.33,0-0.42.49,0.12,0.3-0.16.24-0.49-.28-1.65.68-0.13-.16,0.07-.33-0.44-.12-0.1.18,0.14,0.58-0.06.12-0.19,0-0.21-.2-0.12.06-0.11.4-0.83.08-0.09.13,0,0.42,0,0-1.63.11-0.58-1.21-0.54.18-0.11-.07,0-.2-0.65-.21-0.13-1.35h-0.34l-0.42.81-0.88.1-0.13-.17,0.1-.25-0.58-.27,0-.56-1.1-.57-0.34-1.81-0.23-.18-0.1,0-0.13.29-1.28-.74v-0.11l0.79-.51,0.14-1.62-0.17-.18-0.81.77-0.28-.09-0.36-1.58-0.51-.34-1.83.56-1-.69-0.08.14,0.06,0.16-0.07.09-1.94-.25-0.91,1.12-0.18-.08-0.22-.47h-0.12l-0.08-.14,0.07-.33-2.85.45-0.71-.43-0.63.59-0.18-.09-1.18.86,0.29,2.25-0.85.49,0,0.49-0.61.09-1.89,2.41-0.12-.07,0.06-.27-0.14-.1-0.45.17-0.08-.09,0-1.37-0.15-.19-0.26,0-0.17-.15,0.18-1.11-0.62-.13-0.18.14-0.78-.82-0.31.27-0.23-.39-1.29,0-0.16.37-4.18.61-0.07.23,0.14,0.17-0.15.66,0.33,0.65-0.43.24-0.31.87-0.21,0-3.28,2.7-0.29-.21-0.87.24,0.07,0.38,0,0H90.76l-1.09-1.52-0.43.31-0.18,0-0.07-.5-1.14-.79-4.33,1.79L83,466.17l-0.13.14,0.29,0.4-0.27.3-0.15,0-0.16-.19-0.33,0-0.41.29-2.65-.57-0.65.43-0.48-.1,0-.24,0.33-.38v-0.05l-0.87.15-0.32-.23,0-.3-0.08-.1H76.9l-2.26-1.75V463.8l0.21-.14,0-.13L74.42,463l-2,.08,0.05-.27-0.37-.29-0.63.2-0.06,0,0.06-.44-0.78-.43v-0.28l-0.7-.15-0.25.49-0.6-.05-0.62.63-1,.07L67.68,463,67.6,463l-0.87-.25,0.2-.42-7.68.16-0.71-.58-0.15.28-2-.29-0.19.15-3.31-.61v0l-0.66-.19L52,460.83l-1.51-.32-0.08-.58H50L50,459.86l0.06-.34-0.78-.4-3.19.66-0.39-.58-6.46,1.31L38,462.07l-0.28,0-0.17.2-2.2-.76-0.45-.76L33.2,462l-0.11.41-1.18.17-0.12.32-0.16.09-0.47-.57-1.79,1.26-0.27-.29L25.23,465l-0.69,1.85-2.31.72-0.34-.16-0.23.08,0,0.26-0.17.12-0.31-.09-0.13-.4-0.24-.13-1,1.59-1.41-.49-0.59.26-0.24-.41-0.65,0v0L17,468.54l-0.09.17-0.29,0-0.06.41,0,0-3.21-.81-0.52.36-0.4-.13-0.68.31-0.54,1.1-0.39-.07-0.38.48-0.56-.09L8,472l-0.52-.11-0.18.34-2.7-1.1L3.4,472.22l-2-.51-0.05.22-0.08,0-0.68-.75-2.81.21-0.53.64-0.68,0-0.26-.28-0.11,0-0.45.51-3.18-1-0.24-.38-0.74.2-0.44-.23,0-.26-0.24-.21-9,1.26,0-.22-0.2-.11-1.85,1.21-0.47-.25-0.27.07v-0.31l-1.09.08-0.37-.29v-0.08l-1.47.18,0,0.58-4.16-.43-0.16-.3-0.19,0-0.08-.25-1.16-.42-0.23.13-0.65-.39h0l-10.13-1.61a1.79,1.79,0,0,1-1.48-2.07l1.45-8.53,0.11-.07,0-.36-0.3-.13L-41,447.65l-0.36-.22,0.55-7.63a1.79,1.79,0,0,1,1.71-1.66l3.84-.17,0.76-1,2.59,0.92,1.47-1-2.26-2.56a1.79,1.79,0,0,1-.3-1.89l3.61-8.46a1.79,1.79,0,0,0-.14-1.68l-1.36-2.11L-32,420l0.91-2,3.45-.62-34.94-7.72-0.11.2-0.25,0L-66.11,393l-2.53-.2,4.73-20.33a1.79,1.79,0,0,1,2.1-1.35l3.13,0.64,0.92-1.09,11.57,5.48a1.79,1.79,0,0,0,1.44,0L-34,371.81l1.86,1.94,10.38-14.56,0.08,0.06,16.28-9.41,0.67,2.26h0l3,4a1.79,1.79,0,0,0,1.91.66l5.88-1.59,0.56-1.81,1.69-1a1.79,1.79,0,0,1,1.45-.18l1.74,0.53a1.79,1.79,0,0,0,2.26-1.26l1.15-4.39,2.54-.06,1.11,5a1.79,1.79,0,0,0,2,1.38l3.67-.61,0,0.11,3.94-.64,0-.09,10.61-3.65,0-.13,1.17-.14,0.17,0.42,0.35,0.18,0.9-3.08a1.79,1.79,0,0,1,2-1.26l5.85,1a1.79,1.79,0,0,0,1.76-.71l4.17-5.74a1.79,1.79,0,0,1,2.59-.33L69.16,348l0.69-.29,1.39,0.72,3.22-7.75,0.23-.07,3.92-16.56-1.49-.41,0.94-5,0.8,0.18,13.79,24.63,0.33-.51,1.53,0.62a1.79,1.79,0,0,0,2-.46l0.79-.88a1.79,1.79,0,0,1,1.4-.59l5.38,0.19,0.25,0.37-2.13,1.13-0.85,3.85a1.79,1.79,0,0,0,.47,1.64l2.23,2.28-0.06.11,4.44,5.54,1.3-.34,0.83,0.55-1.47,1.11,5,6a1.79,1.79,0,0,0,2.31.39l0.76-.46a1.79,1.79,0,0,1,1.92,0l11.74,7.8a1.79,1.79,0,0,1,.78,1.73l-0.37,2.79a1.79,1.79,0,0,0,.38,1.35l3.65,4.58,0.09,0,0.32,0.62,0,0.11,4,0.6,0.77,1,0.08-.08,9.59,0.16,0,0.08,4.17-1.43-3,17.5a1.79,1.79,0,0,1-1.28,1.42l-2.23.63-0.13,2-0.28,0,0.5,3.22,2.95-.31-1.27,8.11,1.73,0.9a1.79,1.79,0,0,1,.91,1.15l0.49,1.94a1.79,1.79,0,0,0,2.41,1.22l5.29-2.16,0.71,0.56-1,2.21,0.12,0.27,4.32,1.12h0Z" fill="#3cc2b5"/><path d="M594.75,396.87l-2.51,7.43a1.79,1.79,0,0,1-.74.94l-48.93,30.93a1.79,1.79,0,0,1-2.39-.45L513,399.18a1.79,1.79,0,0,1-.09-2l11.63-19.24h0l7.88-17a1.79,1.79,0,0,1,2.42-.85l62.26,30.64a1.79,1.79,0,0,1,.56,2.78l-2.95,3.38h0Z" fill="#3dc4b7"/><path d="M640,279.84l-3.87,10.43a1.79,1.79,0,0,0,.06,1.39l2,4.35-0.65.73-0.68-.31-3.66,1.49,0.31,1.1-0.83.56,0.13,1.93-15.62,4.41a1.79,1.79,0,0,0-1.08.86L608,321.57l-1.1-.34-2.58,5.86a1.79,1.79,0,0,1-1.64,1.07H592.3l-0.44.5-1.79-.58a1.79,1.79,0,0,0-1.42.14l-28.6,16a1.79,1.79,0,0,1-2.66-1.43L555.48,318a1.79,1.79,0,0,0-1.55-1.64l-7.13-.93a1.79,1.79,0,0,0-1.54.55l-6.87,7.37a1.79,1.79,0,0,1-1.9.47l-42.35-14.74-0.28,2-3.11-.77a1.79,1.79,0,0,0-2.06,1l-3.75,8.18h-0.21l-5.79,11.09,0,0.09-22.5-3.33,0.05-.2-9-5.08a1.79,1.79,0,0,1-.86-2l1.33-5.4a1.79,1.79,0,0,1,1.2-1.28l3.24-1,0.78-1.3,0.67,0.09,2.3-11.88h0.14l0.26-2.1-3.13.3a1.79,1.79,0,0,1-1.95-2l1.35-10.35,0.11,0L451.1,272.7l-2.23-.7L474,252.91l-0.35-1.28,0.33-.53-5.29-6.81a1.79,1.79,0,0,1,.81-2.79l26.16-9.31,0.44-.93h0l0.35-2.27,20.63,6.17,1-.78v0l4.08-2.72L521.44,230l3.08-1.37,0.28,0.27,1.79-.11-0.07-.39,2-.25-0.14-.2,3.41-2.45a1.79,1.79,0,0,1,2.48.39l1.52,2a1.79,1.79,0,0,0,1.27.72l8.68,0.82,0.22,1.77,2.11,0.19L548.05,236a1.79,1.79,0,0,0,1.53,1.79l3,0.43a1.79,1.79,0,0,1,1.53,1.85L554,243.21l-0.52-.12-0.27,1.23,1.87,0.51,0,0.38,0.59,0v-0.05l8.51-3.5a1.79,1.79,0,0,1,2.47,1.74l-0.33,6.84-0.44.18L565.73,252l0.79,0.68h0.75l0.08-.49,0.14,0,0-.28,4.62,0.31,0.35,0.34,0.42-.1,0.6,1,2.28,0.64,2,3.44a1.79,1.79,0,0,0,1.12.84l7.49,1.84v-0.33l1.27,1.24a1.79,1.79,0,0,1,.08,2.48l-0.4.45a1.79,1.79,0,0,0,.78,2.9l2,0.65-0.08.38,6.42,0.13a1.79,1.79,0,0,1,1.28.58l1.62,1.76,0.78-.1,0.17-1.16,6.46-.88a1.79,1.79,0,0,0,1.5-1.38L609,264l0.58-.08,2.45-8,0,0,3.54-1.33a1.79,1.79,0,0,1,2,.47L640,279.84h0Z" fill="#3bbfb2"/><path d="M465.6,179.71l-2.07,2.92a1.79,1.79,0,0,1-1.43.75l-1.13,0a1.79,1.79,0,0,0-1.32.62l-4.89,5.62a1.79,1.79,0,0,0-.33,1.8l2.21,6a1.79,1.79,0,0,1-1.45,2.4l-3.48.45a1.79,1.79,0,0,0-1.53,2.1l42.19,11.94c0.13,0.74-40.2,1.48-40.84,1.86l-5.87,3.5a1.79,1.79,0,0,0-.19,2.95l8.79,6.91a1.79,1.79,0,0,1,.67,1.6l-4.19,38.18a1.79,1.79,0,0,1-2,1.58l-30.08-4.26a1.79,1.79,0,0,0-1.94,1.18l-4.31,12.29a1.79,1.79,0,0,1-2,1.18L402.5,280a1.79,1.79,0,0,0-2.07,1.65l-0.09,1.28a1.79,1.79,0,0,1-1.86,1.67l-25.15-1.1,0.6-1.21-12.54,2.3a1.79,1.79,0,0,1-2-1.24l-3.27-10.71a1.79,1.79,0,0,1,.49-1.83l1.63-1.53a1.79,1.79,0,0,0-1.08-3.09l-4.09-.34a1.79,1.79,0,0,1-1.52-1.12l-18.75-47a1.79,1.79,0,0,1,1.22-2.4l3.61-.91a1.79,1.79,0,0,0,.85-3l-3-3.12,1.11-1,0.51,0.09,1.13-1.26,11.89-.61V205.1l11.13-3.63,0-.09,7.63-2.7a1.79,1.79,0,0,1,2.34,1.28l0.65,2.73a1.79,1.79,0,0,0,2.38,1.26l25-9.61a1.79,1.79,0,0,0,1.06-1.11l4.47-13.41a1.79,1.79,0,0,0-.77-2.1l-1.69-1a1.79,1.79,0,0,1-.86-1.58l0-.65a1.79,1.79,0,0,0-1.26-1.76l-0.41-.13a1.79,1.79,0,0,1-.26-3.31l15.65-7.8-0.07-.33,2.22-1.31a1.79,1.79,0,0,1,1.21-.22l5.13,0.86,0.08-1,2.48,0.71v0.76l7.4-1.72-0.11-.53,0.71-.28,0.16-.33,1.36,0.21-1.7,3.61,2.82,1,0.23-.46,1.55,0.36-2,4.2a1.79,1.79,0,0,0,1.37,2.56L444,170.3l0-.16,12.58,1.23,0-.08,3.79,0.13a1.79,1.79,0,0,1,1.54,1l3.64,7.29h0Z" fill="#3dc4b7"/></g><path d="M126.13,110.37h3.13c2.65,0,4.07,1.71,4.07,3.7a3.61,3.61,0,0,1-2.53,3.5l3.46,6.42h-1.11l-3.29-6.23h-2.74V124h-1V110.37Zm3.17,6.5a2.69,2.69,0,0,0,3-2.8,2.72,2.72,0,0,0-3-2.78h-2.12v5.58h2.18Z" fill="#f2eddc"/><path d="M140.37,113.64c2.9,0,4.75,2.16,4.75,5.06v0.41h-8.6a3.91,3.91,0,0,0,4.13,4.24,4,4,0,0,0,3.48-1.73l0.64,0.45a4.62,4.62,0,0,1-4.13,2.18A5,5,0,0,1,135.5,119C135.5,115.66,137.8,113.64,140.37,113.64Zm3.74,4.61a3.61,3.61,0,0,0-3.76-3.72,3.75,3.75,0,0,0-3.78,3.72h7.53Z" fill="#f2eddc"/><path d="M150.45,117.59a4,4,0,0,1,2.9,1.09v-1.54a2.48,2.48,0,0,0-2.76-2.61,6,6,0,0,0-3.11.93l-0.41-.76a6.8,6.8,0,0,1,3.58-1.07c2.51,0,3.68,1.46,3.68,3.56V124h-0.8l-0.18-1a3.66,3.66,0,0,1-2.9,1.21c-2.3,0-3.87-1.48-3.87-3.35S148.22,117.59,150.45,117.59Zm0.06,5.76a2.61,2.61,0,0,0,2.9-2.45c0-1.44-1.15-2.41-2.92-2.41s-2.92,1-2.92,2.41S148.7,123.35,150.51,123.35Z" fill="#f2eddc"/><path d="M166,124h-1v-1.87a4.29,4.29,0,0,1-3.76,2.12c-2.88,0-4.92-2.2-4.92-5.27s2-5.33,4.83-5.33a4.39,4.39,0,0,1,3.85,2.18v-5.9h1V124Zm-4.81-9.44c-2.2,0-3.83,1.83-3.83,4.42s1.71,4.36,3.87,4.36c2.36,0,3.83-2,3.83-4.36C165,116.17,163.26,114.55,161.16,114.55Z" fill="#f2eddc"/><path d="M169.38,110.41a0.8,0.8,0,1,1-.8.8A0.79,0.79,0,0,1,169.38,110.41Zm-0.49,3.48h1V124h-1v-10.1Z" fill="#f2eddc"/><path d="M180.51,117.43V124h-1v-6.48a2.71,2.71,0,0,0-2.74-3,3,3,0,0,0-3,3.29V124h-1v-10.1h1v1.6a3.57,3.57,0,0,1,3.15-1.85A3.5,3.5,0,0,1,180.51,117.43Z" fill="#f2eddc"/><path d="M184.2,125.88a6.21,6.21,0,0,0,3.13.91c2.18,0,4-1,4-3.58v-1.09a4.29,4.29,0,0,1-3.76,2.12c-2.88,0-4.92-2.2-4.92-5.27s2-5.33,4.83-5.33a4.39,4.39,0,0,1,3.85,2.18v-1.93h1v8.64c0,3.84-2,5.18-4.9,5.18a7.16,7.16,0,0,1-3.56-1.05Zm3.25-11.33c-2.2,0-3.83,1.83-3.83,4.42s1.71,4.36,3.87,4.36c2.36,0,3.83-2,3.83-4.36C191.32,116.17,189.55,114.55,187.45,114.55Z" fill="#f2eddc"/><path d="M27.85,399.36h1l8.35,12v-12h1V413h-1l-8.33-12v12h-1V399.36Z" fill="#f2eddc"/><path d="M45.43,402.63c2.9,0,4.75,2.16,4.75,5.06v0.41h-8.6a3.91,3.91,0,0,0,4.13,4.24,4,4,0,0,0,3.48-1.73l0.64,0.45a4.62,4.62,0,0,1-4.13,2.18A5,5,0,0,1,40.56,408C40.56,404.66,42.86,402.63,45.43,402.63Zm3.74,4.61a3.61,3.61,0,0,0-3.76-3.72,3.75,3.75,0,0,0-3.78,3.72h7.53Z" fill="#f2eddc"/><path d="M58.77,404.19L55.65,413h-1L51,402.89h1.05l3.07,8.89,3.11-8.89h1l3.11,8.89,3.07-8.89h1.05L62.91,413h-1Z" fill="#f2eddc"/><path d="M68.12,398.92h1v5.9a4.39,4.39,0,0,1,3.85-2.18c2.84,0,4.83,2.22,4.83,5.33s-2,5.27-4.92,5.27a4.29,4.29,0,0,1-3.76-2.12V413h-1V398.92Zm4.77,13.41c2.16,0,3.87-1.71,3.87-4.36s-1.63-4.42-3.83-4.42-3.87,1.62-3.87,4.42C69.05,410.34,70.53,412.32,72.88,412.32Z" fill="#f2eddc"/><path d="M79.86,409.44v-6.56h1v6.48a2.71,2.71,0,0,0,2.74,3,3,3,0,0,0,3-3.29v-6.17h1V413h-1v-1.6a3.57,3.57,0,0,1-3.15,1.85A3.5,3.5,0,0,1,79.86,409.44Z" fill="#f2eddc"/><path d="M94.5,403.59c-2.39,0-3.11,2-3.11,4.07V413h-1v-10.1h1v1.81a3.22,3.22,0,0,1,3.11-2.06v1Z" fill="#f2eddc"/><path d="M98.57,416.47L100,413l-4.22-10.08H96.9l3.66,8.89,3.54-8.89h1.05l-5.57,13.58h-1Z" fill="#f2eddc"/><path d="M235.23,344.29l-3.68,12.22h-1.09l-4-13.62h1.05l3.5,12.28,3.66-12.28h1.09l3.66,12.28,3.5-12.28H244l-4,13.62H238.9Z" fill="#f2eddc"/><path d="M249.89,346.16a5.3,5.3,0,1,1-5.2,5.29A5.12,5.12,0,0,1,249.89,346.16Zm0,9.69a4.39,4.39,0,1,0-4.17-4.4A4.15,4.15,0,0,0,249.87,355.85Z" fill="#f2eddc"/><path d="M257.25,342.44h1v8.35l4.65-4.38h1.3l-4.89,4.54,5.14,5.57h-1.3l-4.9-5.43v5.43h-1V342.44Z" fill="#f2eddc"/><path d="M266.52,342.93a0.8,0.8,0,1,1-.8.8A0.79,0.79,0,0,1,266.52,342.93ZM266,346.41h1v10.1h-1v-10.1Z" fill="#f2eddc"/><path d="M277.66,350v6.56h-1V350a2.71,2.71,0,0,0-2.74-3,3,3,0,0,0-3,3.29v6.17h-1v-10.1h1V348a3.57,3.57,0,0,1,3.15-1.85A3.5,3.5,0,0,1,277.66,350Z" fill="#f2eddc"/><path d="M281.34,358.4a6.21,6.21,0,0,0,3.13.91c2.18,0,4-1,4-3.58v-1.09a4.29,4.29,0,0,1-3.76,2.12c-2.88,0-4.92-2.2-4.92-5.27s2-5.33,4.83-5.33a4.39,4.39,0,0,1,3.85,2.18v-1.93h1v8.64c0,3.84-2,5.18-4.9,5.18a7.16,7.16,0,0,1-3.56-1.05Zm3.25-11.33c-2.2,0-3.83,1.83-3.83,4.42s1.71,4.36,3.87,4.36c2.36,0,3.83-2,3.83-4.36C288.46,348.69,286.69,347.07,284.59,347.07Z" fill="#f2eddc"/><path d="M300,350v6.56h-1V350a2.71,2.71,0,0,0-2.74-3,3,3,0,0,0-3,3.29v6.17h-1V342.44h1V348a3.57,3.57,0,0,1,3.15-1.85A3.5,3.5,0,0,1,300,350Z" fill="#f2eddc"/><path d="M306,350.11a4,4,0,0,1,2.9,1.09v-1.54a2.48,2.48,0,0,0-2.76-2.61A6,6,0,0,0,303,348l-0.41-.76a6.8,6.8,0,0,1,3.58-1.07c2.51,0,3.68,1.46,3.68,3.56v6.79H309l-0.18-1a3.66,3.66,0,0,1-2.9,1.21c-2.3,0-3.87-1.48-3.87-3.35S303.71,350.11,306,350.11Zm0.06,5.76a2.61,2.61,0,0,0,2.9-2.45c0-1.44-1.15-2.41-2.92-2.41s-2.92,1-2.92,2.41S304.2,355.87,306,355.87Z" fill="#f2eddc"/><path d="M326.53,356.51h-1v-6.09c0-2.24-.88-3.37-2.63-3.37s-2.9,1.17-2.9,3.39v6.07h-1V350c0-1.87-1.05-3-2.67-3a3,3,0,0,0-2.86,3.31v6.15h-1v-10.1h1V348a3.28,3.28,0,0,1,3-1.85,3.19,3.19,0,0,1,3.19,2,3.47,3.47,0,0,1,3.35-2c2.24,0,3.48,1.62,3.48,3.85v6.5Z" fill="#f2eddc"/><path d="M530,300l-3.68,12.22h-1.09l-4-13.62h1l3.5,12.28,3.66-12.28h1.09l3.66,12.28,3.5-12.28h1.05l-4,13.62h-1.09Z" fill="#f2eddc"/><path d="M541,298.61a0.8,0.8,0,1,1-.8.8A0.79,0.79,0,0,1,541,298.61Zm-0.49,3.48h1v10.1h-1v-10.1Z" fill="#f2eddc"/><path d="M552.15,305.64v6.56h-1v-6.48a2.71,2.71,0,0,0-2.74-3,3,3,0,0,0-3,3.29v6.17h-1v-10.1h1v1.6a3.57,3.57,0,0,1,3.15-1.85A3.5,3.5,0,0,1,552.15,305.64Z" fill="#f2eddc"/><path d="M563.89,312.2h-1v-1.87a4.29,4.29,0,0,1-3.76,2.12c-2.88,0-4.93-2.2-4.93-5.27s2-5.33,4.83-5.33a4.4,4.4,0,0,1,3.85,2.18v-5.9h1V312.2Zm-4.81-9.44c-2.2,0-3.83,1.83-3.83,4.42s1.71,4.36,3.87,4.36c2.36,0,3.83-2,3.83-4.36C563,304.37,561.18,302.76,559.08,302.76Z" fill="#f2eddc"/><path d="M566.85,309.8a2.66,2.66,0,0,0,2.61,1.77,2,2,0,0,0,2.2-2c0-2.72-5.22-1.83-5.22-5.16,0-1.62,1.3-2.61,3-2.61a2.92,2.92,0,0,1,3,2l-0.8.31a2.2,2.2,0,0,0-2.24-1.46,1.77,1.77,0,0,0-2,1.69c0,2.61,5.22,1.71,5.22,5.18a2.94,2.94,0,0,1-3.19,2.88,3.36,3.36,0,0,1-3.41-2.32Z" fill="#f2eddc"/><path d="M579.25,301.84a5.3,5.3,0,1,1-5.2,5.29A5.12,5.12,0,0,1,579.25,301.84Zm0,9.69a4.39,4.39,0,1,0-4.16-4.4A4.15,4.15,0,0,0,579.23,311.53Z" fill="#f2eddc"/><path d="M590.7,302.8c-2.39,0-3.11,2-3.11,4.07v5.33h-1v-10.1h1v1.81a3.22,3.22,0,0,1,3.11-2.06v1Z" fill="#f2eddc"/><path d="M504.61,357.15L502.76,362h-1L507,348.41h1L513.15,362h-1l-1.85-4.89h-5.68Zm2.84-7.61L505,356.24h5Z" fill="#f2eddc"/><path d="M514.95,359.64a2.66,2.66,0,0,0,2.61,1.77,2,2,0,0,0,2.2-2c0-2.72-5.22-1.83-5.22-5.16,0-1.62,1.3-2.61,3-2.61a2.92,2.92,0,0,1,3,2l-0.8.31a2.2,2.2,0,0,0-2.24-1.46,1.77,1.77,0,0,0-2,1.69c0,2.61,5.22,1.71,5.22,5.18a2.94,2.94,0,0,1-3.19,2.88,3.36,3.36,0,0,1-3.41-2.32Z" fill="#f2eddc"/><path d="M530.54,354.08a4.49,4.49,0,0,0-3.33-1.48,4.13,4.13,0,0,0-4,4.38,4.22,4.22,0,0,0,4,4.4,4.5,4.5,0,0,0,3.37-1.56l0.35,0.86a5,5,0,0,1-3.74,1.61,5.31,5.31,0,0,1,0-10.61,5,5,0,0,1,3.72,1.54Z" fill="#f2eddc"/><path d="M537.55,351.68a5.3,5.3,0,1,1-5.2,5.29A5.12,5.12,0,0,1,537.55,351.68Zm0,9.69a4.39,4.39,0,1,0-4.17-4.4A4.15,4.15,0,0,0,537.53,361.38Z" fill="#f2eddc"/><path d="M545,349.84h1v2.1h2.38v0.88h-2.38v5.68c0,2.2.51,2.76,2,2.76l0.45,0v0.88s-0.47,0-.84,0c-1.6,0-2.61-1-2.61-3v-6.31h-1.25v-0.88H545v-2.1Z" fill="#f2eddc"/><path d="M475.8,277.81l5.39-11.25h1.25v13.62h-1V268l-5.16,10.86h-1L470.12,268v12.16h-1V266.56h1.25Z" fill="#f2eddc"/><path d="M488.73,273.78a4,4,0,0,1,2.9,1.09v-1.54a2.48,2.48,0,0,0-2.76-2.61,6,6,0,0,0-3.11.93l-0.41-.76a6.79,6.79,0,0,1,3.58-1.07c2.51,0,3.68,1.46,3.68,3.56v6.79h-0.8l-0.18-1a3.65,3.65,0,0,1-2.9,1.21c-2.3,0-3.87-1.48-3.87-3.35S486.49,273.78,488.73,273.78Zm0.06,5.76c1.71,0,2.9-1,2.9-2.45s-1.15-2.41-2.92-2.41-2.92,1-2.92,2.41S487,279.54,488.79,279.54Z" fill="#f2eddc"/><path d="M495.82,266.6a0.8,0.8,0,1,1-.8.8A0.79,0.79,0,0,1,495.82,266.6Zm-0.49,3.48h1v10.1h-1v-10.1Z" fill="#f2eddc"/><path d="M508.14,280.18h-1v-1.87a4.29,4.29,0,0,1-3.76,2.12c-2.88,0-4.92-2.2-4.92-5.27s2-5.33,4.83-5.33a4.39,4.39,0,0,1,3.85,2.18v-5.9h1v14.07Zm-4.81-9.44c-2.2,0-3.83,1.83-3.83,4.42s1.71,4.36,3.87,4.36c2.35,0,3.83-2,3.83-4.36C507.21,272.36,505.44,270.74,503.33,270.74Z" fill="#f2eddc"/><path d="M515.21,269.83c2.9,0,4.75,2.16,4.75,5.06v0.41h-8.6a3.91,3.91,0,0,0,4.13,4.24,4,4,0,0,0,3.48-1.73l0.64,0.45a4.62,4.62,0,0,1-4.12,2.18,5,5,0,0,1-5.14-5.27C510.35,271.85,512.64,269.83,515.21,269.83Zm3.74,4.61a3.61,3.61,0,0,0-3.76-3.72,3.75,3.75,0,0,0-3.77,3.72h7.53Z" fill="#f2eddc"/><path d="M529.85,273.62v6.56h-1V273.7a2.71,2.71,0,0,0-2.74-3,3,3,0,0,0-3,3.29v6.17h-1v-10.1h1v1.6a3.57,3.57,0,0,1,3.15-1.85A3.5,3.5,0,0,1,529.85,273.62Z" fill="#f2eddc"/><path d="M540.41,273.62v6.56h-1V273.7a2.71,2.71,0,0,0-2.74-3,3,3,0,0,0-3,3.29v6.17h-1V266.11h1v5.57a3.57,3.57,0,0,1,3.15-1.85A3.5,3.5,0,0,1,540.41,273.62Z" fill="#f2eddc"/><path d="M547.38,269.83c2.9,0,4.75,2.16,4.75,5.06v0.41h-8.6a3.91,3.91,0,0,0,4.13,4.24,4,4,0,0,0,3.48-1.73l0.64,0.45a4.63,4.63,0,0,1-4.13,2.18,5,5,0,0,1-5.14-5.27C542.51,271.85,544.81,269.83,547.38,269.83Zm3.74,4.61a3.61,3.61,0,0,0-3.76-3.72,3.75,3.75,0,0,0-3.78,3.72h7.53Z" fill="#f2eddc"/><path d="M557.47,273.78a4,4,0,0,1,2.9,1.09v-1.54a2.48,2.48,0,0,0-2.76-2.61,6,6,0,0,0-3.11.93l-0.41-.76a6.8,6.8,0,0,1,3.58-1.07c2.51,0,3.68,1.46,3.68,3.56v6.79h-0.8l-0.17-1a3.66,3.66,0,0,1-2.9,1.21c-2.3,0-3.87-1.48-3.87-3.35S555.23,273.78,557.47,273.78Zm0.06,5.76a2.61,2.61,0,0,0,2.9-2.45c0-1.44-1.15-2.41-2.92-2.41s-2.92,1-2.92,2.41S555.72,279.54,557.53,279.54Z" fill="#f2eddc"/><path d="M573,280.18h-1v-1.87a4.29,4.29,0,0,1-3.76,2.12c-2.88,0-4.93-2.2-4.93-5.27s2-5.33,4.83-5.33A4.4,4.4,0,0,1,572,272v-5.9h1v14.07Zm-4.81-9.44c-2.2,0-3.83,1.83-3.83,4.42s1.71,4.36,3.87,4.36c2.36,0,3.83-2,3.83-4.36C572,272.36,570.28,270.74,568.18,270.74Z" fill="#f2eddc"/><path d="M526.42,90.31a3.18,3.18,0,0,0,3.31,2.32,2.65,2.65,0,0,0,2.88-2.69c0-4-6.62-2.84-6.62-7.24a3.35,3.35,0,0,1,3.68-3.29,3.81,3.81,0,0,1,3.68,2.41l-0.84.31a3,3,0,0,0-2.84-1.83A2.4,2.4,0,0,0,527,82.73c0,3.52,6.64,2.74,6.64,7.16a3.64,3.64,0,0,1-3.91,3.66,4.08,4.08,0,0,1-4.15-2.92Z" fill="#f2eddc"/><path d="M536,79.22h1V93.29h-1V79.22Z" fill="#f2eddc"/><path d="M544.33,82.94a5.3,5.3,0,1,1-5.2,5.29A5.12,5.12,0,0,1,544.33,82.94Zm0,9.69a4.39,4.39,0,1,0-4.16-4.4A4.15,4.15,0,0,0,544.31,92.63Z" fill="#f2eddc"/><path d="M551.6,89.75V83.19h1v6.48a2.71,2.71,0,0,0,2.74,3,3,3,0,0,0,3-3.29V83.19h1v10.1h-1V91.7a3.57,3.57,0,0,1-3.15,1.85A3.5,3.5,0,0,1,551.6,89.75Z" fill="#f2eddc"/><path d="M563,95.18a6.21,6.21,0,0,0,3.13.91c2.18,0,3.95-1,3.95-3.58V91.42a4.29,4.29,0,0,1-3.76,2.12c-2.88,0-4.92-2.2-4.92-5.27s2-5.33,4.83-5.33a4.39,4.39,0,0,1,3.85,2.18V83.19h1v8.64c0,3.84-2,5.18-4.9,5.18A7.17,7.17,0,0,1,562.6,96Zm3.25-11.33c-2.2,0-3.83,1.83-3.83,4.42s1.71,4.36,3.87,4.36c2.35,0,3.83-2,3.83-4.36C570.13,85.47,568.36,83.85,566.26,83.85Z" fill="#f2eddc"/><path d="M581.62,86.73v6.56h-1V86.81a2.71,2.71,0,0,0-2.74-3,3,3,0,0,0-3,3.29v6.17h-1V79.22h1v5.57A3.57,3.57,0,0,1,578,82.94,3.5,3.5,0,0,1,581.62,86.73Z" fill="#f2eddc"/><path d="M359.66,223.06h3.56a3.47,3.47,0,0,1,3.76,3.48,3.32,3.32,0,0,1-1.83,3,3.45,3.45,0,0,1,2.3,3.33,3.79,3.79,0,0,1-3.91,3.81h-3.87V223.06Zm3.68,6.07a2.53,2.53,0,0,0,2.61-2.59,2.49,2.49,0,0,0-2.61-2.57h-2.69v5.16h2.69Zm-0.12,6.66c1.85,0,3.19-1,3.19-2.92S365,230,363.18,230h-2.53v5.76h2.57Z" fill="#f2eddc"/><path d="M373.87,227.28c-2.39,0-3.11,2-3.11,4.07v5.33h-1v-10.1h1v1.81a3.22,3.22,0,0,1,3.11-2.06v1Z" fill="#f2eddc"/><path d="M379.11,230.28a4,4,0,0,1,2.9,1.09v-1.54a2.48,2.48,0,0,0-2.76-2.61,6,6,0,0,0-3.11.93l-0.41-.76a6.79,6.79,0,0,1,3.58-1.07c2.51,0,3.68,1.46,3.68,3.56v6.79h-0.8l-0.18-1a3.65,3.65,0,0,1-2.9,1.21c-2.3,0-3.87-1.48-3.87-3.35S376.87,230.28,379.11,230.28Zm0.06,5.76c1.71,0,2.9-1,2.9-2.45s-1.15-2.41-2.92-2.41-2.92,1-2.92,2.41S377.36,236,379.17,236Z" fill="#f2eddc"/><path d="M393.38,228.72a4.48,4.48,0,0,0-3.33-1.48,4.12,4.12,0,0,0-4,4.38,4.22,4.22,0,0,0,4,4.4,4.51,4.51,0,0,0,3.37-1.56l0.35,0.86a5,5,0,0,1-3.74,1.61,5.31,5.31,0,0,1,0-10.61,5,5,0,0,1,3.72,1.54Z" fill="#f2eddc"/><path d="M395.91,222.61h1V231l4.65-4.38h1.3L398,231.12l5.14,5.57h-1.3l-4.9-5.43v5.43h-1V222.61Z" fill="#f2eddc"/><path d="M412.42,230.12v6.56h-1V230.2a2.71,2.71,0,0,0-2.74-3,3,3,0,0,0-3,3.29v6.17h-1v-10.1h1v1.6a3.57,3.57,0,0,1,3.15-1.85A3.5,3.5,0,0,1,412.42,230.12Z" fill="#f2eddc"/><path d="M419.4,226.33c2.9,0,4.75,2.16,4.75,5.06v0.41h-8.6a3.91,3.91,0,0,0,4.13,4.24,4,4,0,0,0,3.48-1.73l0.64,0.45a4.62,4.62,0,0,1-4.12,2.18,5,5,0,0,1-5.14-5.27C414.53,228.35,416.83,226.33,419.4,226.33Zm3.74,4.61a3.61,3.61,0,0,0-3.76-3.72,3.75,3.75,0,0,0-3.77,3.72h7.53Z" fill="#f2eddc"/><path d="M426.31,222.61h1v14.07h-1V222.61Z" fill="#f2eddc"/><path d="M430.21,222.61h1v14.07h-1V222.61Z" fill="#f2eddc"/></g></g></svg>