<svg xmlns="http://www.w3.org/2000/svg" viewBox="0 0 478.15 274"><title>bus-london</title><g style="isolation:isolate"><g id="Layer_2" data-name="Layer 2"><path d="M432.92,269L6.76,270.34c-3.18,0-1.36-3,3.81-6.62l26.85-18.63c3.69-2.56,8.62-4.57,11.15-4.58L386,238.91c2.63,0,8,2,12.1,4.56l30.13,18.8C434,265.91,436.26,269,432.92,269Z" fill="#000b0c" opacity="0.1" style="mix-blend-mode:multiply"/><path d="M117.3,218.51a31.7,31.7,0,1,1-31.68-31.68A31.56,31.56,0,0,1,117.3,218.51Z" fill="#000b0c"/><path d="M328.3,219.51a31.7,31.7,0,1,1-31.68-31.68A31.56,31.56,0,0,1,328.3,219.51Z" fill="#000b0c"/><line x1="114.36" y1="113.41" x2="124.23" y2="144.54" fill="none" stroke="#870a04" stroke-linecap="round" stroke-linejoin="round"/><path d="M89.73,138.16a11.13,11.13,0,0,1,5.63-2h7.5" fill="none" stroke="#870a04" stroke-linecap="round" stroke-linejoin="round"/><rect x="110.98" y="144.66" width="6.48" height="4.67" rx="1.64" ry="1.64" fill="#870a04"/><rect x="114.22" y="141.91" width="2.63" height="3.88" fill="#870a04"/><path d="M111.07,111.66h14.79v-16h-39v62h39v-9H111.07c-2.58,0-4.21-2.42-4.21-5V116A4,4,0,0,1,111.07,111.66Zm-9.21,33.71c0,1.63-1,3.29-2.62,3.29H94.82a3.26,3.26,0,0,1-3-3.29V114.28a2.69,2.69,0,0,1,3-2.62h4.42a2.42,2.42,0,0,1,2.62,2.62v31.09Z" fill="#ad100f"/><polygon points="98.19 246.99 23.98 230.03 30.19 194.66 63.86 183.45 162.53 186.85 217.86 193.66 332.19 171.66 369.86 201.99 371.53 244.72 273.31 243.43 103.53 242.66 98.19 246.99" fill="#000b0c"/><path d="M413.86,92.66H42.61a4.58,4.58,0,0,1-4.43-6.32l0.25-1.76,8.28-60.25a29.73,29.73,0,0,1,1.89-4.45A30.36,30.36,0,0,1,75.49,3.66H323.34c47.13,0,87.47,28.67,90.12,80.67l0,0.33C413.74,87.35,413.86,90.74,413.86,92.66Z" fill="#f22923"/><rect x="125.86" y="111.66" width="3" height="37" fill="#fff"/><path d="M425.12,243.86l-44.49.76-14.61.25-7.16.12V233.72c0-23.13-19-42.49-42.17-42a41.3,41.3,0,0,0-40.49,41.24l0.44,12.36a0.43,0.43,0,0,1-.7.41c-0.83-.75-1.8-1.5-2.63-2.25a0.42,0.42,0,0,0-.28-0.1l-169.5-.67L98.19,247c5.92-17.16,1.45-35.53-11-46-9.68-8.14-24.86-12.08-38.33-6.33,0,0-13.74,5.87-19.62,20.62a47.73,47.73,0,0,0-2.5,9.38,27.06,27.06,0,0,0-.33,4,7.64,7.64,0,0,0,.2,2,4.74,4.74,0,0,1-3.36-1.39,4.23,4.23,0,0,1-.51-0.61,4.69,4.69,0,0,1-.88-2.75S22,193.13,23.69,190a14.83,14.83,0,0,1,8.15-6.75,16.48,16.48,0,0,1,2.09-.57H33.86V178.1a5,5,0,0,1,2.38-4.25A147.83,147.83,0,0,1,93,154.32a145.86,145.86,0,0,1,28.19-.8l1.86,0.14c0-1,.1-2,0.12-3,0.09-5.22.22-10.44,0.31-15.66a29.75,29.75,0,0,0-4.64-15.34c-7.75-11.66-23.29-14.47-32-16C72.32,101,66.19,104,57.65,98.25a26.41,26.41,0,0,1-6-5.59,36.19,36.19,0,0,1-3.54-5.48l161.74,2.61,177.27,2.87L407.53,93l5.14,22.49,1.19,5.18-1.19,111.75a2.5,2.5,0,0,0,.27.63l14.75,6.29A3,3,0,0,1,425.12,243.86Z" fill="#f22923"/><path d="M380.63,244.62l-14.61.25-7.16.12V233.72c0-23.13-19-42.49-42.17-42a41.3,41.3,0,0,0-40.49,41.24l0.44,12.36a0.43,0.43,0,0,1-.7.41c-0.83-.75-1.8-1.5-2.63-2.25a0.42,0.42,0,0,0-.28-0.1l-169.5-.67L98.19,247c5.92-17.16,1.45-35.53-11-46-9.68-8.14-24.86-12.08-38.33-6.33,0,0-13.74,5.87-19.62,20.62a47.73,47.73,0,0,0-2.5,9.38,27.06,27.06,0,0,0-.33,4,7.64,7.64,0,0,0,.2,2,4.74,4.74,0,0,1-3.36-1.39,4.23,4.23,0,0,1-.51-0.61,4.69,4.69,0,0,1-.88-2.75S22,193.13,23.69,190a14.83,14.83,0,0,1,8.15-6.75,16.48,16.48,0,0,1,2.09-.57H33.86V178.1a5,5,0,0,1,2.38-4.25A147.83,147.83,0,0,1,93,154.32a145.86,145.86,0,0,1,28.19-.8l1.86,0.14c0-1,.1-2,0.12-3,0.09-5.22.22-10.44,0.31-15.66a29.75,29.75,0,0,0-4.64-15.34c-7.75-11.66-23.29-14.47-32-16C72.32,101,66.19,104,57.65,98.25a26.41,26.41,0,0,1-6-5.59h-9a4.58,4.58,0,0,1-4.43-6.32l0.25-1.76,8.28-60.25a29.73,29.73,0,0,1,1.89-4.45C75.32,26,109.29,36.72,148.86,55.66a574.28,574.28,0,0,1,61,34.13c1.48,0.95,3,1.9,4.43,2.87C286.82,139.87,347.87,200.18,380.63,244.62Z" fill="#f5130c"/><path d="M33.86,182.66v-5a4.1,4.1,0,0,1,2-3.51A147.63,147.63,0,0,1,93,154.32a145.8,145.8,0,0,1,30-.66Z" fill="#e22316"/><path d="M61.86,87.37V92a1.94,1.94,0,0,1-2,1.71H39.53A1.68,1.68,0,0,1,37.86,92V87.37a1.68,1.68,0,0,1,1.67-1.71H59.9A1.94,1.94,0,0,1,61.86,87.37Z" fill="#bc1110"/><path d="M34.36,182.08c5.72-1.57,9.54-3,19.17-5.09,18.9-4,28.37-5.1,35-5.66,6.11-.52,18.21-0.65,26.44-0.67a7,7,0,0,0,7-6.89l0.21-10.11Z" fill="#e22316"/><path d="M122,163.77c-0.06,3,0,6.91,0,9a1.33,1.33,0,0,1-1.45,1.35c-5.71-.5-22.83-2.45-31.92-1.78-6.84.5-16.32,1.7-34.87,5.64-7.34,1.55-13.56,3.07-18.24,4.3a12.65,12.65,0,0,0-1.57.4H33.86v-2c6.42-1.69,13-3.25,19.46-4.63,18.66-4,28.23-5.09,35.12-5.68,6.43-.54,19.38-0.65,26.53-0.67,3.25,0,7-2.64,7-5.89h0Z" fill="#870a04"/><path d="M425.12,243.86l-60.22,1c-1.5,0-3.22-1-3.19-6.72,0.14-24.34,1.77-48.69.15-73v-0.16A46,46,0,0,1,369,141a43.5,43.5,0,0,1,5.42-6.79,48.66,48.66,0,0,1,5.37-4.72l0.18-.12c1.71-1.3,3.36-2.39,4.85-3.37a65.85,65.85,0,0,1,6-3.52c1.68-.87,3.36-1.64,5-2.32a69.32,69.32,0,0,1,14.22-4.23,2.75,2.75,0,0,1,3.17,2.1l0.08,0.31c0,0.1,0,.2.05,0.3l0.21,1.85,0,0.4-0.75,41.76V163l-0.57,68.5a1.15,1.15,0,0,0,.38.91l13.53,4.75a3.21,3.21,0,0,1,2.11,2.57C428.59,241.7,427.93,243.86,425.12,243.86Z" fill="#bc1110"/><path d="M312.86,27V50c0,3-2.06,5.67-5,5.67H263.29A5.71,5.71,0,0,1,257.86,50V27a5.42,5.42,0,0,1,5.43-5.34h44.57A5.07,5.07,0,0,1,312.86,27Z" fill="#ad100f"/><path d="M412.29,231.45a7.3,7.3,0,0,0,.26,2.52l-50.68-7.31c0.14-25.18,0-64.53,0-64.53-0.06-13.74-.17-27.48-0.17-41.22,0-11.83,2.83-27.92,48.67-27.92l1.19,9.44,2.31,18.23-0.3,28Z" fill="#400303"/><path d="M413.86,120.66l-0.3,28h-20.7V115.09a14.85,14.85,0,0,1,2.33-8.1,17,17,0,0,1,4.5-4.33,47.12,47.12,0,0,1,10.5-5.83Z" fill="#87e8de"/><path d="M393.36,105.16s14.88,40,15.38,45.26" fill="none" stroke="#400303" stroke-linecap="round" stroke-linejoin="round"/><path d="M410.36,93l3.2,25.32a34.73,34.73,0,0,1,.27,4.72l-1.28,110" fill="none" stroke="#f22923" stroke-linecap="round" stroke-linejoin="round" stroke-width="2"/><path d="M247.86,27V50a5.61,5.61,0,0,1-2.14,4.43,5.47,5.47,0,0,1-3.2,1.24H198c-2.95,0-5.1-2.72-5.1-5.67V27a5.14,5.14,0,0,1,5.1-5.34h44.56A5.34,5.34,0,0,1,247.86,27Z" fill="#ad100f"/><rect x="125.86" y="21.66" width="55" height="34" rx="5.34" ry="5.34" fill="#ad100f"/><rect x="139.67" y="40.66" width="41.19" height="14.67" rx="3.04" ry="3.04" fill="#87e8de"/><rect x="197.76" y="40.66" width="42.19" height="14.67" rx="3.08" ry="3.08" fill="#87e8de"/><path d="M247.86,40.7V50a5.17,5.17,0,0,1-2,4.27,3.73,3.73,0,0,1-1-2.81V44.53A3.58,3.58,0,0,1,247.86,40.7Z" fill="#87e8de"/><path d="M310.86,44.53v6.92c0,2.14-1.31,4.21-3.45,4.21H263.29A5.71,5.71,0,0,1,257.86,50V40.66h49.55C309.55,40.66,310.86,42.39,310.86,44.53Z" fill="#87e8de"/><path d="M312.86,124.59V143.4c0,2.72-1.87,5.26-4.59,5.26H262.88a5.1,5.1,0,0,1-4.91-4.38,5.29,5.29,0,0,1-.11-0.88V124.59a4.89,4.89,0,0,1,.82-2.66,5,5,0,0,1,4.2-2.27h45.39A4.65,4.65,0,0,1,312.86,124.59Z" fill="#ad100f"/><path d="M325.07,119.66h4a24.88,24.88,0,0,1,24.88,24.88v0a3.79,3.79,0,0,1-3.79,3.79H325.07a3.79,3.79,0,0,1-3.79-3.79V123.45a3.79,3.79,0,0,1,3.79-3.79Z" fill="#ad100f"/><path d="M247.86,124.59V143.4a6.15,6.15,0,0,1-.17,1.43,5.15,5.15,0,0,1-4,3.77,4.37,4.37,0,0,1-.72.06H197.54a4.64,4.64,0,0,1-4.2-3,5.76,5.76,0,0,1-.43-1.59,4.12,4.12,0,0,1,0-.7V124.59a5.17,5.17,0,0,1,.62-2.5,4.36,4.36,0,0,1,.62-0.9,4.53,4.53,0,0,1,3.44-1.53h45.39A4.93,4.93,0,0,1,247.86,124.59Z" fill="#ad100f"/><path d="M181.86,124.34v19.31a5.22,5.22,0,0,1-.29,1.18,4.76,4.76,0,0,1-.87,1.83,4.93,4.93,0,0,1-3.85,2H136.39c-2.58,0-4.53-2.43-4.53-5V124.34a4.55,4.55,0,0,1,4.53-4.68h40.46a5.21,5.21,0,0,1,4,2A4.3,4.3,0,0,1,181.86,124.34Z" fill="#ad100f"/><path d="M181.86,124.34v19.31a5.22,5.22,0,0,1-.29,1.18,4.76,4.76,0,0,1-.87,1.83H149a4.22,4.22,0,0,1-4.18-4.4v-16.2a4.22,4.22,0,0,1,4.18-4.4H180.9A4.3,4.3,0,0,1,181.86,124.34Z" fill="#87e8de"/><path d="M194.86,124.06v18.2a4.33,4.33,0,0,1-1.52,3.43,5.76,5.76,0,0,1-.43-1.59,4.12,4.12,0,0,1,0-.7V124.59a3.91,3.91,0,0,1,.62-2.5,3.81,3.81,0,0,1,.33-0.43A3.23,3.23,0,0,1,194.86,124.06Z" fill="#87e8de"/><path d="M116.86,24.7V49.76a5.85,5.85,0,0,1-5.52,5.9H57.14a5.27,5.27,0,0,1-5.28-5.13v0c0-.18-0.13-0.38-0.13-0.57a30.51,30.51,0,0,1,6.18-18.69,25.49,25.49,0,0,1,2.66-2.83A30.09,30.09,0,0,1,82.1,19.66h29.24C114.39,19.66,116.86,21.64,116.86,24.7Z" fill="#ad100f"/><path d="M93.08,40.66h23.78v9.5a5.63,5.63,0,0,1-5.52,5.5H82.21a2.27,2.27,0,0,1-2.35-2.08,2.14,2.14,0,0,1,0-.24,11.76,11.76,0,0,1,1-4.7,12.81,12.81,0,0,1,2.91-4.23A13.76,13.76,0,0,1,93.08,40.66Z" fill="#87e8de"/><path d="M133.86,43.1V53.27c0,0.84-.5,1.39-1.23,2.39h-1A6,6,0,0,1,125.86,50V40.66h5.6A2.5,2.5,0,0,1,133.86,43.1Z" fill="#87e8de"/><path d="M346.46,19.16a32.9,32.9,0,0,1,32.9,32.9v0.6" fill="none" stroke="#e02621" stroke-linecap="round" stroke-linejoin="round"/><path d="M380,54.27a1.38,1.38,0,0,1-1.23,1.39H329.94a5.39,5.39,0,0,1-5.08-5.5V27.25a5.52,5.52,0,0,1,5.5-5.59h17.22A32.21,32.21,0,0,1,370,30.73,32.6,32.6,0,0,1,380,54.27Z" fill="#ad100f"/><path d="M348.84,55a0.71,0.71,0,0,1-.53.7H329.94a5.39,5.39,0,0,1-5.08-5.5V43.09a2.37,2.37,0,0,1,2.35-2.43h7.5A14.28,14.28,0,0,1,348.84,55Z" fill="#87e8de"/><polyline points="74.86 63.16 338.36 63.16 338.36 81.66" fill="none" stroke="#e02621" stroke-miterlimit="10"/><path d="M41.86,58.66h30.3a2.7,2.7,0,0,1,2.7,2.7V80a2.7,2.7,0,0,0,2.7,2.7h262.3" fill="none" stroke="#870a04" stroke-linecap="round" stroke-linejoin="round" stroke-width="2"/><path d="M362.86,208.66h-1.05v-2h1.05a2,2,0,0,0,2-2v-28a1.94,1.94,0,0,0-1.92-2h-1.08v-2h1.08a3.92,3.92,0,0,1,3.92,4v28A4,4,0,0,1,362.86,208.66Z" fill="#ffc000"/><rect x="371.38" y="133.29" width="4.98" height="17.37" rx="0.61" ry="0.61" fill="#612626"/><rect x="371.38" y="117.24" width="2.49" height="16.04" rx="0.42" ry="0.42" fill="#4a1313"/><path d="M392.86,165.67v13.67a1.22,1.22,0,0,1-1.12,1.32h-19.1c-0.7,0-.79-0.66-0.79-1.32V165.67c0-.66.09-1,0.79-1h19.1A1,1,0,0,1,392.86,165.67Z" fill="#612626"/><rect x="371.38" y="180.53" width="29.02" height="16.04" rx="1.43" ry="1.43" fill="#612626"/><rect x="371.38" y="196.57" width="32.86" height="16.04" rx="1.52" ry="1.52" fill="#612626"/><path d="M407.86,214.27V227c0,0.91,0,1.65-.86,1.65H379.27l-7.54-.75a1.83,1.83,0,0,1,.13-0.9V214.27c0-.91-0.06-1.61.81-1.61H407C407.88,212.66,407.86,213.36,407.86,214.27Z" fill="#612626"/><rect x="370.96" y="216.07" width="38.9" height="1.2" fill="#400303"/><rect x="370.96" y="199.18" width="38.9" height="1.2" fill="#400303"/><rect x="370.96" y="183.32" width="38.9" height="1.2" fill="#400303"/><polygon points="395.86 93.63 395.86 150.42 390.86 145.42 390.86 94.23 395.86 93.63" fill="#d9a305"/><polygon points="392.03 240.66 361.86 235.61 361.86 231.74 395.86 239.49 392.03 240.66" fill="#9c0908"/><path d="M395.86,123.93V239.49a1.17,1.17,0,0,1-1.17,1.17H392a1.17,1.17,0,0,1-1.17-1.17V119.42S395.86,120.83,395.86,123.93Z" fill="#ffc000"/><line x1="125.86" y1="34.66" x2="181.86" y2="34.66" fill="none" stroke="#f22923" stroke-linecap="round" stroke-linejoin="round" stroke-width="2"/><line x1="192.86" y1="34.66" x2="247.86" y2="34.66" fill="none" stroke="#f22923" stroke-linecap="round" stroke-linejoin="round" stroke-width="2"/><line x1="131.86" y1="129.66" x2="181.86" y2="129.66" fill="none" stroke="#f22923" stroke-linecap="round" stroke-linejoin="round" stroke-width="2"/><rect x="263.4" y="122.91" width="46.13" height="23.75" rx="4.1" ry="4.1" fill="#87e8de"/><path d="M247.86,126.59v8.48l-1,10.33a4.73,4.73,0,0,1-.17,1.26H207.13a4.32,4.32,0,0,1-4.27-4.59V127.5c0-2.54,1.73-4.84,4.27-4.84h39.08A5.67,5.67,0,0,1,247.86,126.59Z" fill="#87e8de"/><path d="M260.86,126.5v15.57a4.82,4.82,0,0,1-2.67,4,5,5,0,0,1-.33-0.71V125.59a5.66,5.66,0,0,1,.42-2.93C259.69,122.91,260.86,125.06,260.86,126.5Z" fill="#87e8de"/><path d="M323.36,122.91h0a12.59,12.59,0,0,1,12.59,12.59v7.84a2.07,2.07,0,0,1-2.07,2.07H323.36a2.07,2.07,0,0,1-2.07-2.07V125a2.07,2.07,0,0,1,2.07-2.07Z" fill="#87e8de"/><path d="M129.3,214.78l9.44,9.44a1.24,1.24,0,0,0,2.12-.88V218a5.38,5.38,0,0,0-5.38-5.38h-5.3A1.24,1.24,0,0,0,129.3,214.78Z" fill="#bc1110"/><path d="M293.13,196H125.71V161.36a5.93,5.93,0,0,1,6.13-5.7H347.78a5.93,5.93,0,0,1,6.13,5.7V196H339.48" fill="none" stroke="#fa3c37" stroke-linecap="round" stroke-linejoin="round"/><polyline points="125.71 195.66 125.71 239.16 271.18 239.16 271.18 195.99" fill="none" stroke="#fa3c37" stroke-linecap="round" stroke-linejoin="round"/><polyline points="135.86 163.66 148.86 163.66 148.86 159.66" fill="none" stroke="#870a04" stroke-linecap="round" stroke-linejoin="round" stroke-width="2"/><line x1="135.86" y1="224.66" x2="132.86" y2="224.66" fill="none" stroke="#870a04" stroke-linecap="round" stroke-linejoin="round" stroke-width="2"/><circle cx="44.64" cy="108.15" r="2.11" fill="#6b120f"/><rect x="42.53" y="91.66" width="3" height="17" rx="1.5" ry="1.5" fill="#f22923"/><polyline points="49.36 19.16 332.86 19.16 346.46 19.16" fill="none" stroke="#e02621" stroke-linecap="round" stroke-linejoin="round"/><path d="M49.13,114.17a0.69,0.69,0,0,1-1.25.4L46.1,112a1.58,1.58,0,0,1-.57-1.22v-6.14a1.58,1.58,0,0,1,.57-1.22L47.89,101a0.69,0.69,0,0,1,1.25.4v12.82Z" fill="#bc1110"/><path d="M51.86,92.53h0a1.33,1.33,0,0,1-1.34,1.12h-11A1.68,1.68,0,0,1,37.86,92V91.66H50.52A1.15,1.15,0,0,1,51.86,92.53Z" fill="#6b120f"/><path d="M59.83,55.66H57.14a5.11,5.11,0,0,1-5.28-4.78v0c-0.13-3.58-.07-7,1.22-10.2l1.36,0.94A22.64,22.64,0,0,1,59.83,55.66Z" fill="#87e8de"/><path d="M381.76,166.66h5.34l-15.24,13.73V167.27c0-.65.18-0.61,1-0.61h-0.47c-0.55,0-.5-0.91-0.5-1.35V151.14c0-.18-0.16-0.2,0-0.32s-0.07-.16.14-0.16c0,0,9.9.3,9.9,0.48v14.17C381.86,165.75,382.31,166.66,381.76,166.66Z" fill="#f2d0d0"/><rect x="371.38" y="166.12" width="15.73" height="0.85" fill="#614442"/><polygon points="389.22 168.61 389.21 168.66 389.18 168.66 389.22 168.61" fill="#f2d0d0"/><line x1="58.11" y1="87.35" x2="37.3" y2="87.35" fill="none" stroke="#a61c18" stroke-miterlimit="10"/><path d="M411.59,93.66H60.06a2.79,2.79,0,0,1-2.83-2.77l0-2.51a2.79,2.79,0,0,1,2.83-2.73h351.4a2.8,2.8,0,0,1,2.83,2.6c0,0.87.09,1.75,0.12,2.57A2.78,2.78,0,0,1,411.59,93.66Z" fill="#e1eefc"/><path d="M344.9,88.94V86.83h46.17l-45.41,2.79A0.7,0.7,0,0,1,344.9,88.94Z" fill="#c0cad6"/><path d="M371.33,164.66h16a0,0,0,0,1,0,0v1.46a0,0,0,0,1,0,0h-17.5a0,0,0,0,1,0,0v0A1.46,1.46,0,0,1,371.33,164.66Z" fill="#e8af05"/><path d="M371.38,150.66h10.79a0.76,0.76,0,0,1,.76.76v0a0.76,0.76,0,0,1-.76.76h-12.3a0,0,0,0,1,0,0v0a1.51,1.51,0,0,1,1.51-1.51Z" fill="#e8af05"/><rect x="371.37" y="152.17" width="10.49" height="0.85" fill="#614442"/><path d="M116.86,25.61v9H62.62a9.17,9.17,0,0,1-5.71-2,29.56,29.56,0,0,1,2.66-3.31A29.3,29.3,0,0,1,81.1,19.66h30.24A5.75,5.75,0,0,1,116.86,25.61Z" fill="#b01716"/><path d="M180.86,27v7.66h-55V27a5.34,5.34,0,0,1,5.34-5.34h44.32A5.34,5.34,0,0,1,180.86,27Z" fill="#b01716"/><path d="M247.86,27v7.66h-55V27a5.14,5.14,0,0,1,5.1-5.34h44.56A5.34,5.34,0,0,1,247.86,27Z" fill="#b01716"/><path d="M312.86,27v7.66h-55V27a5.42,5.42,0,0,1,5.43-5.34h44.57A5.07,5.07,0,0,1,312.86,27Z" fill="#b01716"/><path d="M370,30.73l-3.09,2.14a10.2,10.2,0,0,1-5.8,1.79H324.86V27.25a5.52,5.52,0,0,1,5.5-5.59h17.22A32.21,32.21,0,0,1,370,30.73Z" fill="#b01716"/><path d="M312.86,135v8.37c0,2.72-1.87,5.26-4.59,5.26h-0.59a5.62,5.62,0,0,1-.82-2.94v-5a5.7,5.7,0,0,1,5.7-5.69h0.3Z" fill="#6e0a09"/><path d="M247.86,135.07v8.33a6.15,6.15,0,0,1-.17,1.43,5.15,5.15,0,0,1-4,3.77,5.6,5.6,0,0,1-.79-2.88v-5A5.69,5.69,0,0,1,247.86,135.07Z" fill="#6e0a09"/><path d="M121.86,178.14v7.64l-37.65-.62-0.31,0-5.53-.51L69,183.76a0.87,0.87,0,0,1-.43-1.58l1.07-1.77a0.87,0.87,0,0,1,.45-0.13l12.12-1.62s6.25-.77,9.4-0.89l28.75-1.15A1.46,1.46,0,0,1,121.86,178.14Z" fill="#856968"/><path d="M80.82,178.82c-1.46,1.21-2,2.93-2.35,5.13l-0.08.68L69,183.76c-0.81-.07-1.9-0.65-1.43-1.58l0.92-1.53a1,1,0,0,1,.6-0.4Z" fill="#755d5c"/><path d="M338.36,67.66v-8.5h52.4c3.09,0,5.6,2.13,5.6,4.76v3.74h-58Z" fill="none" stroke="#e02621" stroke-miterlimit="10" stroke-width="0.92"/><rect x="349.88" y="69.16" width="37.93" height="16.5" rx="1.98" ry="1.98" fill="#400303"/><rect x="350.23" y="69.41" width="37.22" height="16.25" rx="1.94" ry="1.94" fill="#401a1a"/><rect x="353.1" y="77.41" width="7.93" height="1" fill="#ffdbdb"/><rect x="353.1" y="75.4" width="7.93" height="1" fill="#ffdbdb"/><polyline points="355.08 73.94 358.04 75.9 356.06 77.91 359.05 79.87" fill="none" stroke="#ffdbdb" stroke-miterlimit="10"/><polyline points="396.36 67.66 396.36 77.66 396.36 86.16 337.86 86.16" fill="none" stroke="#fa3c37" stroke-linecap="round" stroke-linejoin="round"/><line x1="181.36" y1="155.66" x2="181.36" y2="193.66" fill="none" stroke="#e02621" stroke-miterlimit="10"/><line x1="181.36" y1="196.66" x2="181.36" y2="238.66" fill="none" stroke="#e02621" stroke-miterlimit="10"/><line x1="248.36" y1="196.66" x2="248.36" y2="238.66" fill="none" stroke="#e02621" stroke-miterlimit="10"/><line x1="248.36" y1="155.66" x2="248.36" y2="193.66" fill="none" stroke="#e02621" stroke-miterlimit="10"/><line x1="313.36" y1="155.66" x2="313.36" y2="189.66" fill="none" stroke="#e02621" stroke-miterlimit="10"/><path d="M93.3,233.51a31.7,31.7,0,1,1-31.68-31.68A31.56,31.56,0,0,1,93.3,233.51Z" fill="#181c1c"/><path d="M93.3,233.51a31.7,31.7,0,1,1-31.68-31.68A31.56,31.56,0,0,1,93.3,233.51Z" fill="#212626"/><path d="M87.3,250.71c0,0.46,0,.92,0,1.38a31.68,31.68,0,0,1-57.34-18.58q0-.69,0-1.38c0-1,.13-1.9.25-2.83A31.7,31.7,0,0,1,53.07,203,50.38,50.38,0,0,1,87.3,250.71Z" fill="#fff" opacity="0.5" style="mix-blend-mode:overlay"/><path d="M80.52,237.94a19.42,19.42,0,1,1-24.16-23.12c0.24-.07.5-0.13,0.75-0.18A18.82,18.82,0,1,0,80.52,237.94Z" fill="#fff" opacity="0.25" style="mix-blend-mode:overlay"/><path d="M78.82,233.51a17.19,17.19,0,1,1-17.2-17.2A17.16,17.16,0,0,1,78.82,233.51Z" fill="#8c2d2d"/><path d="M78.36,236.62c-0.85,0-1.54-1.39-1.54-3.11s0.69-3.11,1.54-3.11S79.21,236.62,78.36,236.62Z" fill="#181c1c"/><path d="M75.63,244.23a17.46,17.46,0,0,1-4.54,4.16h0a1,1,0,0,1-.24-0.9,4.33,4.33,0,0,1,1.35-2.39,4,4,0,0,1,2.68-1.36,0.88,0.88,0,0,1,.61.24A0.72,0.72,0,0,1,75.63,244.23Z" fill="#181c1c"/><path d="M64.73,216.76c0,0.85-1.39,1.54-3.11,1.54s-3.11-.69-3.11-1.54S64.73,215.91,64.73,216.76Z" fill="#181c1c"/><path d="M75.59,224.08c-0.56.64-2.06,0.23-3.35-.91s-1.87-2.58-1.3-3.21S76.16,223.44,75.59,224.08Z" fill="#181c1c"/><path d="M76.64,240.9A17.2,17.2,0,0,0,54.3,218.46a16.56,16.56,0,0,1,7.32-1.69,16.77,16.77,0,0,1,16.75,16.75A16.57,16.57,0,0,1,76.64,240.9Z" fill="#3b1313"/><path d="M71.58,247.52c-3,2.58-5.69,3.19-10,3.19a17.19,17.19,0,0,1-17.2-17.2c0-6.6,2.25-11.47,7.74-14.35L49.73,229c-1.58,8.4,5.69,17.32,11.89,17.2Z" fill="#732525"/><path d="M79,230.72a17.62,17.62,0,0,0-3.31-7.8,17.9,17.9,0,0,0-2.82-3,17.47,17.47,0,0,0-8.51-3.86,17.17,17.17,0,0,0-5.56,0,17.65,17.65,0,0,0,2.78,35.07A17.67,17.67,0,0,0,79,236.3,17.29,17.29,0,0,0,79,230.72Zm-4.18,13a16.88,16.88,0,0,1-4,3.75,16.59,16.59,0,0,1-9.21,2.77,16.8,16.8,0,0,1-16.41-13.41,16.53,16.53,0,0,1-.33-3.34A16.74,16.74,0,0,1,64.67,217a16.56,16.56,0,0,1,6.52,2.73,16.72,16.72,0,0,1,7.18,13.73,16.3,16.3,0,0,1-.29,3.06A16.51,16.51,0,0,1,74.86,243.74Z" fill="#521a1a"/><path d="M74.06,231l-2.48,4.12-0.17.16-4.53,4.41L55.1,228.63l2.92-4.4h0l4.29-3.37A12.71,12.71,0,0,1,74.06,231Z" fill="#732525"/><path d="M74.06,231a12.71,12.71,0,0,0-11.73-10.18l-0.71,0a12.67,12.67,0,1,0,12.67,12.67A13.07,13.07,0,0,0,74.06,231ZM61.62,243.47A10,10,0,0,1,58,224.23h0a9.82,9.82,0,0,1,3.58-.67,10,10,0,0,1,10,10,9.23,9.23,0,0,1-.17,1.81A10,10,0,0,1,61.62,243.47Z" fill="#9098a1"/><circle cx="61.62" cy="233.51" r="8.15" fill="#0f1212"/><path d="M66.15,233.51a4.4,4.4,0,0,1-.45,2,1.28,1.28,0,0,1-.11.2,3.85,3.85,0,0,1-.39.6A4.47,4.47,0,0,1,61.62,238a4.5,4.5,0,0,1-3-1.18,2.48,2.48,0,0,1-.27-0.16,4.54,4.54,0,0,1-1.22-3.25h0A4.33,4.33,0,0,1,58.62,230c0.06,0,.17-0.09.23-0.13a4.49,4.49,0,0,1,2.74-.92A4.57,4.57,0,0,1,66.15,233.51Z" fill="#929ba3"/><path d="M65.7,235.66a6.1,6.1,0,0,1-.5.6,6.58,6.58,0,0,1-1.79,1.41,3.82,3.82,0,0,1-1.79.47,4.32,4.32,0,0,1-3-1.28l-0.16-.16a5,5,0,0,1-1.33-3.25A4.5,4.5,0,0,1,58.74,230l0.17-.13,0.53,2.63,3.23,2.78,2.79,0.35H65.7Z" fill="#81888f"/><circle cx="61.62" cy="233.51" r="2.2" fill="#cad7e3"/><path d="M83,256.87a31.67,31.67,0,0,1-46.06-43.22c-6.81,12.07-5.68,30,4.6,40.31A31.69,31.69,0,0,0,83,256.87Z" fill="#636363" opacity="0.5" style="mix-blend-mode:overlay"/><path d="M26.41,228.66a7.64,7.64,0,0,0,.2,2,4.74,4.74,0,0,1-3.36-1.39,4.23,4.23,0,0,1-.51-0.61h3.67Z" fill="#870a04"/><path d="M28,231.66l-1.33.32c0.05-1.05.14-2.1,0.28-3.13Z" fill="#181c1c"/><path d="M348.43,233.51a31.82,31.82,0,1,1-31.81-31.81A31.63,31.63,0,0,1,348.43,233.51Z" fill="#212626"/><path d="M345.94,238.05a33,33,0,0,1-2.37,12.36,31.81,31.81,0,1,1-47-41.59A33.35,33.35,0,0,1,345.94,238.05Z" fill="#fff" opacity="0.5" style="mix-blend-mode:overlay"/><path d="M335.6,238a19.51,19.51,0,1,1-24.26-23.22c0.24-.07.5-0.14,0.75-0.19A18.9,18.9,0,1,0,335.6,238Z" fill="#fff" opacity="0.25" style="mix-blend-mode:overlay"/><path d="M316.62,249.91A16.39,16.39,0,1,1,333,233.51,16.41,16.41,0,0,1,316.62,249.91Z" fill="#3b1313"/><path d="M316.62,249.91A16.39,16.39,0,1,1,333,233.51,16.41,16.41,0,0,1,316.62,249.91Z" fill="#3b1313"/><path d="M316.62,249.91A16.39,16.39,0,1,1,333,233.51,16.41,16.41,0,0,1,316.62,249.91Z" fill="#3b1313"/><path d="M316.62,249.91A16.39,16.39,0,1,1,333,233.51,16.41,16.41,0,0,1,316.62,249.91Z" fill="#260c0c"/><path d="M330.41,242.35a16.39,16.39,0,0,0-27.62-17.62A16.38,16.38,0,1,1,330.41,242.35Z" fill="#8c2d2d"/><path d="M330,242.95a16.39,16.39,0,0,1-29.79-9.44,15.94,15.94,0,0,1,.19-2.49c0,0.19,0,.38,0,0.57a16.92,16.92,0,0,0,17.08,16.72A17.22,17.22,0,0,0,330,242.95Z" fill="#8c2d2d"/><path d="M308.66,246.55a14.59,14.59,0,0,0,5,2" fill="none" stroke="#c96b6b" stroke-linecap="round" stroke-linejoin="round"/><path d="M324.38,233.51a7.63,7.63,0,0,1-.56,2.89A7.76,7.76,0,1,1,324.38,233.51Z" fill="#6b2323"/><path d="M324.38,233.51a7.63,7.63,0,0,1-.56,2.89,7.76,7.76,0,0,1-10.1-10.1,7.7,7.7,0,0,1,2.89-.56A7.78,7.78,0,0,1,324.38,233.51Z" fill="#361111"/><path d="M321.75,233.51a5,5,0,0,1-.37,1.91A5.13,5.13,0,1,1,321.75,233.51Z" fill="none" stroke="#3b1313" stroke-linecap="round" stroke-linejoin="round" stroke-width="1.82" stroke-dasharray="0.45 3.58"/><ellipse cx="316.54" cy="247.51" rx="2.35" ry="1.25" fill="#260c0c"/><ellipse cx="307.18" cy="244.23" rx="1.25" ry="2.35" transform="translate(-72.58 343.17) rotate(-53.09)" fill="#260c0c"/><rect x="38" y="85.66" width="376.86" height="1.17" rx="0.58" ry="0.58" fill="#e02621"/><rect x="49.67" y="92.49" width="365.19" height="1.17" rx="0.58" ry="0.58" fill="#e02621"/><polygon points="57.24 88.02 57.24 86.83 101.11 86.83 57.24 88.02" fill="#a2abb5"/><polygon points="101.11 94.85 101.11 93.66 107.23 93.66 101.11 94.85" fill="#e3120b"/><path d="M345.36,85.66V69.25a1.59,1.59,0,0,1,1.59-1.59h3.91" fill="none" stroke="#fa3c37" stroke-linecap="round" stroke-linejoin="round"/><path d="M120.53,19.16s0.17-15.5,5.33-15.5" fill="none" stroke="#fa3c37" stroke-linecap="round" stroke-linejoin="round"/><path d="M187.53,19.16s0.33-15.5,3.33-15.5" fill="none" stroke="#fa3c37" stroke-linecap="round" stroke-linejoin="round"/><path d="M318.86,19.16s-0.17-15.5-5.33-15.5" fill="none" stroke="#fa3c37" stroke-linecap="round" stroke-linejoin="round"/><path d="M252.86,19.16s0.33-15.5-3.33-15.5" fill="none" stroke="#fa3c37" stroke-linecap="round" stroke-linejoin="round"/><path d="M90.47,77.78H86.85V68h3.5c2,0,3.18,1,3.18,2.63a2.31,2.31,0,0,1-1.06,2,2.2,2.2,0,0,1,1.37,2.21C93.84,76.84,92.34,77.78,90.47,77.78ZM89.23,70V71.8h1a0.81,0.81,0,0,0,.84-0.91A0.79,0.79,0,0,0,90.23,70h-1Zm0,3.7v2H90.4a0.94,0.94,0,0,0,1-1,0.91,0.91,0,0,0-1-1H89.23Z" fill="#f2d3d3"/><path d="M96.91,74.71a1.46,1.46,0,0,0,1.55,1.22,1.9,1.9,0,0,0,1.54-.79l1.54,1.19A3.52,3.52,0,0,1,98.42,78a3.69,3.69,0,0,1-3.91-3.84,3.65,3.65,0,0,1,3.61-3.88c2.34,0,3.61,1.5,3.61,4,0,0.14,0,.29,0,0.46H96.91ZM97,73.23h2.38a1.13,1.13,0,0,0-1.19-1.09A1.16,1.16,0,0,0,97,73.23Z" fill="#f2d3d3"/><path d="M106.9,72.63a2.53,2.53,0,0,0-.38,0c-1.13,0-1.51.83-1.51,1.93v3.25h-2.34V70.43H105v1a2.07,2.07,0,0,1,1.95-1.16v2.38Z" fill="#f2d3d3"/><path d="M112.42,73.79l2.56,4h-2.75l-2.06-3.43v3.43h-2.34V67.65h2.34v5.73l2-3h2.62Z" fill="#f2d3d3"/><path d="M115.19,76.7l1.32-1.28a2.31,2.31,0,0,0,1.63.64c0.45,0,.66-0.14.66-0.41,0-.84-3.36-0.48-3.36-3.15,0-1.42,1.23-2.27,2.83-2.27a3.11,3.11,0,0,1,2.63,1.26l-1.51,1.19a1.76,1.76,0,0,0-1.22-.57,0.43,0.43,0,0,0-.53.36c0,0.92,3.39.39,3.39,3.05C121,77,119.7,78,118,78A3.54,3.54,0,0,1,115.19,76.7Z" fill="#f2d3d3"/><path d="M126.22,73.4a0.94,0.94,0,0,0-1-1,1,1,0,0,0-1,1v4.38h-2.34V67.65h2.34v3.53a2.15,2.15,0,0,1,1.82-.94c2.3,0,2.52,2,2.52,3.46v4.08h-2.34V73.4Z" fill="#f2d3d3"/><path d="M129.69,68.72A1.31,1.31,0,1,1,131,70,1.25,1.25,0,0,1,129.69,68.72Zm2.49,9.06h-2.34V70.43h2.34v7.35Z" fill="#f2d3d3"/><path d="M137.76,72.63a2.53,2.53,0,0,0-.38,0c-1.13,0-1.51.83-1.51,1.93v3.25h-2.34V70.43h2.28v1a2.07,2.07,0,0,1,1.95-1.16v2.38Z" fill="#f2d3d3"/><path d="M140.44,74.71A1.46,1.46,0,0,0,142,75.93a1.9,1.9,0,0,0,1.54-.79l1.54,1.19A3.52,3.52,0,0,1,142,78,3.69,3.69,0,0,1,138,74.13a3.65,3.65,0,0,1,3.61-3.88c2.34,0,3.61,1.5,3.61,4,0,0.14,0,.29,0,0.46h-4.82Zm0.07-1.49h2.38a1.13,1.13,0,0,0-1.19-1.09A1.16,1.16,0,0,0,140.51,73.23Z" fill="#f2d3d3"/><path d="M155.19,70.06l-2,.91A1.33,1.33,0,0,0,152,70a0.69,0.69,0,0,0-.77.66c0,1.33,4.09,1.19,4.09,4.19,0,1.81-1.29,3.11-3.43,3.11a3.41,3.41,0,0,1-3.33-2.34l2-1A1.72,1.72,0,0,0,152,75.72a0.71,0.71,0,0,0,.87-0.69c0-1.3-4.06-1.19-4.06-4.33,0-1.76,1.27-2.91,3.22-2.91A3.22,3.22,0,0,1,155.19,70.06Z" fill="#f2d3d3"/><path d="M158.39,74.71a1.46,1.46,0,0,0,1.55,1.22,1.9,1.9,0,0,0,1.54-.79L163,76.34A3.52,3.52,0,0,1,159.91,78,3.69,3.69,0,0,1,156,74.13a3.65,3.65,0,0,1,3.61-3.88c2.34,0,3.61,1.5,3.61,4,0,0.14,0,.29,0,0.46h-4.82Zm0.07-1.49h2.38a1.13,1.13,0,0,0-1.19-1.09A1.16,1.16,0,0,0,158.46,73.23Z" fill="#f2d3d3"/><path d="M167.31,75.81l-1.29,2h-2.51L166,74.06l-2.44-3.63h2.61l1.12,2,1.12-2H171l-2.44,3.63,2.51,3.73H168.6Z" fill="#f2d3d3"/><path d="M174.09,74.81a0.94,0.94,0,0,0,1,1.05,1,1,0,0,0,1-1.05V70.43h2.34v7.35h-2.28V77a2.2,2.2,0,0,1-1.85.94c-2.3,0-2.52-2-2.52-3.46V70.43h2.34v4.38Z" fill="#f2d3d3"/><path d="M182.15,73.06a3.74,3.74,0,0,1,1.42.27V73.06a0.92,0.92,0,0,0-1.12-.8,4.24,4.24,0,0,0-1.85.46l-0.87-1.57a5.36,5.36,0,0,1,3-.91c2.54,0,3.18,1.3,3.18,3v4.55h-2.09l-0.13-.41A2.23,2.23,0,0,1,182,78a2.5,2.5,0,0,1-2.73-2.46C179.29,74,180.41,73.06,182.15,73.06Zm0.48,3.11a0.83,0.83,0,0,0,1-.76A1,1,0,1,0,182.63,76.17Z" fill="#f2d3d3"/><path d="M187.16,67.65h2.34V77.78h-2.34V67.65Z" fill="#f2d3d3"/><path d="M202.07,77.78h-2.4V73.94h-3.5v3.84h-2.4V68h2.4v3.81h3.5V68h2.4v9.81Z" fill="#f2d3d3"/><path d="M205.64,74.71a1.46,1.46,0,0,0,1.55,1.22,1.89,1.89,0,0,0,1.54-.79l1.54,1.19A3.52,3.52,0,0,1,207.15,78a3.69,3.69,0,0,1-3.91-3.84,3.64,3.64,0,0,1,3.61-3.88c2.34,0,3.61,1.5,3.61,4,0,0.14,0,.29,0,0.46h-4.82Zm0.07-1.49h2.38a1.13,1.13,0,0,0-1.19-1.09A1.16,1.16,0,0,0,205.71,73.23Z" fill="#f2d3d3"/><path d="M213.87,73.06a3.74,3.74,0,0,1,1.42.27V73.06a0.92,0.92,0,0,0-1.12-.8,4.24,4.24,0,0,0-1.85.46l-0.87-1.57a5.36,5.36,0,0,1,3-.91c2.54,0,3.18,1.3,3.18,3v4.55h-2.09l-0.13-.41a2.23,2.23,0,0,1-1.67.59A2.5,2.5,0,0,1,211,75.5C211,74,212.14,73.06,213.87,73.06Zm0.48,3.11a0.83,0.83,0,0,0,1-.76A1,1,0,1,0,214.35,76.17Z" fill="#f2d3d3"/><path d="M218.88,67.65h2.34V77.78h-2.34V67.65Z" fill="#f2d3d3"/><path d="M225.1,70.43h1.25v1.89H225.1V75a0.76,0.76,0,0,0,.91.8h0.39v2a3.77,3.77,0,0,1-.9.08c-1.74,0-2.75-.8-2.75-3V72.32H222V70.43h0.71V68.87h2.34v1.56Z" fill="#f2d3d3"/><path d="M231.83,73.4a0.94,0.94,0,0,0-1-1,1,1,0,0,0-1,1v4.38h-2.34V67.65h2.34v3.53a2.15,2.15,0,0,1,1.82-.94c2.3,0,2.52,2,2.52,3.46v4.08h-2.34V73.4Z" fill="#f2d3d3"/><path d="M369.49,77.47l1,1.8h-1.13l-0.75-1.55h-0.31v1.55h-1v-4.2h1.37A1.32,1.32,0,0,1,369.49,77.47ZM368.26,76v0.91h0.31A0.42,0.42,0,0,0,369,76.4a0.41,0.41,0,0,0-.5-0.44h-0.26Z" fill="#ffdbdb"/><path d="M372.1,75.07a2.1,2.1,0,1,1,0,4.2h-1.24v-4.2h1.24Zm-0.21.89v2.42h0.21a1.21,1.21,0,0,0,0-2.42h-0.21Z" fill="#ffdbdb"/><path d="M378.73,78.69a2.83,2.83,0,0,1-1.92.66,2.18,2.18,0,1,1,0-4.35,2.07,2.07,0,0,1,1.71.73l-0.65.67a1.33,1.33,0,0,0-1-.46,1.12,1.12,0,0,0-1.18,1.2,1.16,1.16,0,0,0,1.18,1.26,1.37,1.37,0,0,0,.89-0.26V77.77h-0.73V76.91h1.68v1.78Z" fill="#ffdbdb"/><path d="M333,7a83.36,83.36,0,0,1,23,4.67c6.21,2.21,19.09,7,30.5,19.33a69.81,69.81,0,0,1,14.17,23.33" fill="none" stroke="#ff534d" stroke-linecap="round" stroke-linejoin="round" stroke-width="3"/><path d="M47.86,28.83a27.48,27.48,0,0,1,3.25-9.08C56.16,11,64.69,7.69,67.53,6.74" fill="none" stroke="#e81e17" stroke-linecap="round" stroke-linejoin="round" stroke-width="3"/><circle cx="442.24" cy="236.35" r="7.77" fill="#f5f5f5" opacity="0.5" style="mix-blend-mode:multiply"/><ellipse cx="442.77" cy="254.23" rx="7.23" ry="1.89" fill="#000b0c" opacity="0.05" style="mix-blend-mode:multiply"/><circle cx="461.82" cy="223.61" r="5.18" fill="#f5f5f5" opacity="0.5" style="mix-blend-mode:multiply"/><ellipse cx="462.59" cy="253.75" rx="4.41" ry="1.13" fill="#000b0c" opacity="0.05" style="mix-blend-mode:multiply"/><circle cx="473.44" cy="205.24" r="2.59" fill="#f5f5f5" opacity="0.5" style="mix-blend-mode:multiply"/><ellipse cx="474.37" cy="253.17" rx="1.93" ry="0.5" fill="#000b0c" opacity="0.05" style="mix-blend-mode:multiply"/></g></g></svg>