<svg xmlns="http://www.w3.org/2000/svg" viewBox="0 0 113 135"><defs><linearGradient id="a" x1="54.02" y1="52.53" x2="75.83" y2="27.57" gradientUnits="userSpaceOnUse"><stop offset="0" stop-color="#4b91c0" stop-opacity="0"/><stop offset="1" stop-color="#4b91c0"/></linearGradient></defs><title>bsh_illus_</title><g style="isolation:isolate"><path fill="#55a4d9" d="M13.75 42.98l84.25.05V105l-42 23.36-43-23.33.75-62.05"/><circle cx="40.63" cy="107.46" r="19.38" fill="#f2eddc" opacity=".5" style="mix-blend-mode:multiply"/><path fill="#f2eddc" opacity=".5" style="mix-blend-mode:multiply" d="M50 88.98L48.17 49H46v39l4 .98"/><path fill="#3bbfb2" d="M84 24h8v18h-8z"/><path fill="#4b91c0" d="M60 42.5V9l4.63-3.34L76.5 23.33l-.12 40.3-7.5-4L68 53V42.98l-8-.48"/><path fill="url(#a)" style="mix-blend-mode:screen" d="M60 42.5V9l4.63-3.34L76.5 23.33l-.12 40.3-7.5-4L68 53V42.98l-8-.48"/><circle cx="37" cy="105.03" r="19.38" fill="#f1f1f1"/><path fill="#f1f1f1" d="M24 38h26v10H24z"/><path fill="#d6d6d6" d="M27.5 48h17.75v38.63H27.5z"/><path fill="none" stroke="#1f2fa9" stroke-linejoin="round" stroke-width="6" d="M15.17 106.01l2.9 1.45"/><path fill="none" stroke="#1f2fa9" stroke-linecap="round" stroke-linejoin="round" stroke-width="6" d="M20 43h-7v62.03l2.31 1.05"/><path fill="none" stroke="#1f2fa9" stroke-linejoin="round" stroke-width="6" d="M26 43h-6"/><path fill="none" stroke="#1f2fa9" stroke-linecap="round" stroke-miterlimit="10" stroke-width="6" d="M66 43H52"/><path fill="none" stroke="#1f2fa9" stroke-linecap="round" stroke-linejoin="round" stroke-width="6" d="M50.81 125.5l5.19 2.86 43-23.33V43H78"/><path fill="none" stroke="#a3edff" stroke-linejoin="round" stroke-width="4" d="M90 94v6.03l-3.59 1.62"/><path fill="none" stroke="#1f2fa9" stroke-linejoin="round" stroke-width="6" d="M45.25 122.32l5.84 3.34"/><path d="M56.58 105.23c0 10.6-8.76 18.8-19.58 18.8s-19.58-8.2-19.58-18.8A19.39 19.39 0 0 1 37 86a19.39 19.39 0 0 1 19.58 19.23z" fill="none" stroke="#005bac" stroke-miterlimit="10" stroke-width="4"/><path fill="none" stroke="#005bac" stroke-linecap="round" stroke-linejoin="round" stroke-width="4" d="M28 48h-4V38h26v10H40"/><path d="M64.58 42H60.5V9.09l3.39-3.4a.51.51 0 0 1 .73 0l11.88 17V64.2l-8-4.3v-7.12" fill="none" stroke="#1f2fa9" stroke-linecap="round" stroke-linejoin="round" stroke-width="4"/><path fill="none" stroke="#005bac" stroke-linecap="round" stroke-miterlimit="10" stroke-width="4" d="M37 98v8h6"/><path fill="none" stroke="#1f2fa9" stroke-linecap="round" stroke-linejoin="round" stroke-width="4" d="M84 24h8v18h-8z"/><path fill="#1f2fa9" d="M84 18h8v4h-8z"/><path fill="none" stroke="#005bac" stroke-linecap="round" stroke-linejoin="round" stroke-width="4" d="M46 48v38M28 88V48"/><path fill="#f12e4e" d="M84 18h8v4h-8z"/><path fill="none" stroke="#4b91c0" stroke-linecap="round" stroke-linejoin="round" stroke-width="2" d="M107 96.5h2M107 92.5h2M107 88.5h2M6 50.5H4M7.67 38l-2.91-2.9"/><path fill="none" stroke="#4b91c0" stroke-linecap="round" stroke-linejoin="round" d="M107.5 86v13"/><path d="M10.5 35.5h-2A3.5 3.5 0 0 0 5 39M5 43v12" fill="none" stroke="#4b91c0" stroke-linecap="round" stroke-linejoin="round" stroke-width="2"/><path fill="none" d="M0 0h113v135H0z"/></g></svg>