<svg xmlns="http://www.w3.org/2000/svg" viewBox="0 0 154 93"><title>bsh_illus_</title><g style="isolation:isolate"><path fill="none" d="M0 0h154v93H0z"/><path d="M150.5 47c-.12 19.27-13.89 34.55-28.33 40-13.5 5.06-29.17 2.11-41.86-5.1C76 79.47 55.37 67.42 55.33 47c0-16.92 14.11-27.95 18.67-31.5 5-3.89 25.32-18.25 48.17-9 14.98 5.98 28.45 21.09 28.33 40.5z" fill="#f26052"/><path d="M99.5 50.67c0 11.44-7.88 23-19.19 31.23C66 73.82 55.4 60.43 55.33 47c0-11.58 7.77-23.2 19-31.45 14.41 8.24 25.16 21.77 25.17 35.12z" fill="#d9d1b9" opacity=".4" style="mix-blend-mode:multiply"/><path d="M99.5 46.67C99.52 72.29 59.92 98.4 31 87 16.93 81.42 4 66.42 3.5 47.83 3 28.37 16.43 12.31 31 6.45 60-5.2 99.48 21.09 99.5 46.67z" fill="#f7f2e1"/><path d="M55.47 41.81a34.16 34.16 0 0 0 4.4 19.5 31 31 0 0 0 9.92 10.25l-1 .71c-4.59 3.28-7 3.63-7.77 3.88a39.64 39.64 0 0 1-11.72 2.04c-18.43 0-33.36-14.3-33.34-32s15-32 33.4-32a37.86 37.86 0 0 1 11.74 2 30 30 0 0 1 8.9 5.45 22 22 0 0 0-8.5 5.5 23.94 23.94 0 0 0-6.07 14.67" fill="none" stroke="#f26052" stroke-linecap="round" stroke-linejoin="round" stroke-width="6"/><path d="M84 21.29a22 22 0 0 1 8.5 5.5c8.29 8.8 7.6 24 1.67 34.17a31 31 0 0 1-9.92 10.25l1 .71c4.59 3.28 7 3.63 7.77 3.88a39.64 39.64 0 0 0 11.75 2.05c18.43 0 33.36-14.3 33.34-32s-15-32-33.4-32a37.86 37.86 0 0 0-11.74 2A30 30 0 0 0 84 21.29z" fill="none" stroke="#f7f2e1" stroke-linecap="round" stroke-linejoin="round" stroke-width="6"/><ellipse cx="38.03" cy="46.72" rx="7.02" ry="6.01" fill="none" stroke="#f26052" stroke-miterlimit="10" stroke-width="4"/><path fill="none" stroke="#f26052" stroke-miterlimit="10" stroke-width="2" d="M35.15 39.5l-2.81-3 2.81-3h5.62l2.81 3-2.81 3h-5.62z"/><path d="M74.58 52.25a6.75 6.75 0 0 0 5.08-.08" fill="none" stroke="#e79b52" stroke-linecap="round" stroke-linejoin="round" stroke-width="2"/><ellipse cx="67" cy="43.71" rx="2" ry="3" fill="#e79b52"/><ellipse cx="87" cy="43.71" rx="2" ry="3" fill="#e79b52"/><path stroke="#e79b52" stroke-linecap="round" stroke-linejoin="round" stroke-width="2" d="M75 59.5h4"/><path d="M61.54 27.14a16.05 16.05 0 0 0 4.84 4.57c7.51 4.5 14.87-.13 25.5 4a28.43 28.43 0 0 1 4.12 2" fill="none" stroke="#f26052" stroke-linecap="round" stroke-linejoin="round" stroke-width="4"/><path d="M121.44 43.71a5.7 5.7 0 0 1 5.71 5.29c0 3.21-4.49 5.82-10 5.82s-10-2.6-10-5.82a5.69 5.69 0 0 1 5.68-5.24" fill="none" stroke="#f7f2e1" stroke-miterlimit="10" stroke-width="4"/><path d="M112.25 45.75c-.35-3.49 2.48-6.24 5.25-6.08a5.4 5.4 0 0 1 4.63 6.21" fill="none" stroke="#f7f2e1" stroke-linecap="round" stroke-miterlimit="10" stroke-width="2"/><path d="M67.41 41.31A2.79 2.79 0 0 0 65 41.2" fill="#e79b52" stroke="#e79b52" stroke-linecap="round" stroke-linejoin="round"/></g></svg>