<svg xmlns="http://www.w3.org/2000/svg" viewBox="0 0 114 136"><defs><linearGradient id="a" x1="56" y1="119.9" x2="56" y2="7" gradientUnits="userSpaceOnUse"><stop offset=".23" stop-color="#f2eddc"/><stop offset=".28" stop-color="#eaebda"/><stop offset=".37" stop-color="#d3e5d5"/><stop offset=".48" stop-color="#addccc"/><stop offset=".61" stop-color="#7acfc1"/><stop offset=".73" stop-color="#42c1b4"/></linearGradient></defs><title>bsh_illus_</title><g style="isolation:isolate"><path fill="none" d="M0 0h114v136H0z"/><path fill="url(#a)" d="M106 7v10l-7 5-2.05 9.23L91.19 35l-.35 4.17L86 49.83V102l-9.89 5.54-.73-38.08-.1-5.39-5.28-.24V111l-10.58 4 .64-45.94.09-6.06-5.21.01-.2 6.2-1.52 47.27-9.01 3.42-.98-50.41-.11-5.73L38 64v51l-10-10.33V43l-6.92-8.99-6.46-14L6 16.53V7h100"/><path fill="#1a544e" opacity=".8" style="mix-blend-mode:multiply" d="M7.96 13.69h98.42v3.63H7.96z"/><path fill="#3bbfb2" opacity=".8" style="mix-blend-mode:multiply" d="M86 49.83H29l-7-13.16h70.17L86 49.83"/><path fill="#237068" opacity=".8" style="mix-blend-mode:multiply" d="M87.94 36.67H24.69l-6.1-6.8-3.71-11.68h82.87l-1.88 12.36-7.93 6.12"/><path fill="#d9d1b9" d="M5 58l9.86-5.79.77 26.56L6 84.14 5 58"/><g fill="none" stroke="#2b2b2b" stroke-linecap="round" stroke-linejoin="round"><path stroke-width="4" d="M99 19H16"/><path d="M15.25 20h-2.49a6.51 6.51 0 0 1-6.51-6.5V6h102v7.5a6.51 6.51 0 0 1-6.51 6.5h-2.49M98.25 21v6.5a6.5 6.5 0 0 1-6.5 6.5h-.5M24.27 34h-1.52a6.5 6.5 0 0 1-6.5-6.5V21" stroke-width="6"/><path stroke-width="4" d="M91 33H49"/><path stroke-width="6" d="M90 35v7h-3"/><path stroke-width="4" d="M29 41h26"/><path stroke-width="6" d="M24.25 34.56v7.45h3M11.26 83.16L6 84.13V57.64l10-6.13v24.91a6.93 6.93 0 0 1-4.74 6.74zM77.36 107.54l8.89-4.36"/><path d="M70.28 110.33V66a3 3 0 0 1 3-3 3 3 0 0 1 3 3l.08 41.17" stroke-width="4"/><path stroke-width="6" d="M61.31 115l7.97-4.38"/><path d="M54.28 116.34V66a3 3 0 0 1 3-3 3 3 0 0 1 3 3v49" stroke-width="4"/><path stroke-width="6" d="M45.29 119.96l7.96-3.48"/><path d="M38.22 115.7V66a3 3 0 0 1 3-3 3 3 0 0 1 3 3v53.9" stroke-width="4"/><path stroke-width="6" d="M28.25 106.28l9 9.7M28.25 42.01v64.27M86.25 102.35V42.01"/></g><ellipse cx="57" cy="128.25" rx="52" ry="4.75" fill="#42454a" opacity=".05" style="mix-blend-mode:multiply"/><ellipse cx="9.78" cy="128.38" rx="7.47" ry="1.63" fill="#42454a" opacity=".05" style="mix-blend-mode:multiply"/></g></svg>