<svg xmlns="http://www.w3.org/2000/svg" viewBox="0 0 112 141"><defs><linearGradient id="a" x1="19" y1="86.9" x2="94.33" y2="86.9" gradientUnits="userSpaceOnUse"><stop offset="0" stop-color="#f26052"/><stop offset=".44" stop-color="#f2615a"/><stop offset="1" stop-color="#f2646b"/></linearGradient></defs><title>bsh_illus_</title><g style="isolation:isolate"><path fill="#f2eddc" d="M55.48 72L38.67 49.57 26 46.67l-7 9.5 2.15 35 32.68 37.16 10.24-6L88.33 95l6-19.33-3.49-22.5-6.01-7.71-13 6.04L55.48 72"/><path opacity=".1" fill="url(#a)" style="mix-blend-mode:multiply" d="M55.48 72L38.67 49.57 26 46.67l-7 9.5 2.15 35 32.68 37.16 10.24-6L88.33 95l6-19.33-3.49-22.5-6.01-7.71-13 6.04L55.48 72"/><path fill="#f2766b" style="mix-blend-mode:multiply" d="M25.11 33.69L36.67 50.5 54.5 74.67l21.58-26.62 10.4-14.36 2.63-15.02-5.34-8.27-9.94-4.72-12.64 4.37-6.69 7.62-5.49-8.68-7.45-3.24-10.72 2.5-7.03 9.35-.29 11.36 1.59 4.73"/><path fill="#f2eddc" opacity=".7" style="mix-blend-mode:screen" d="M25.11 33.69L36.67 50.5 54.5 74.67l21.58-26.62 10.4-14.36 2.63-15.02-5.34-8.27-9.94-4.72-12.64 4.37-6.69 7.62-5.49-8.68-7.45-3.24-10.72 2.5-7.03 9.35-.29 11.36 1.59 4.73"/><path fill="#f26052" opacity=".3" style="mix-blend-mode:multiply" d="M47.08 43.88l9.28-8.95 5.99 6.98L74.5 45H80L63.33 61.67l-6.66 12.16L43.33 55.5 33.2 45.46"/><ellipse cx="55.82" cy="130.64" rx="18.01" ry="7.64" fill="#f2eddc" opacity=".8" style="mix-blend-mode:multiply"/><path d="M83.4 49.57a3.4 3.4 0 0 1 1.06.15c3.69 1.21 6.66 12 6.37 23-.47 17.69-12.23 35-35 51.47a106.57 106.57 0 0 1-18.41-15.85C27 96.85 21.5 84.87 21.17 72.72c-.3-11 2.69-21.79 6.4-23a3.38 3.38 0 0 1 1.05-.15c5.26 0 14.76 7.64 22 21.79L56 81.8l5.32-10.46C66.7 60.78 76.26 49.57 83.4 49.57zm0-6c-8.11 0-19.34 9.18-27.42 25-8.14-15.87-19.27-25-27.36-25a9.32 9.32 0 0 0-2.92.43C16.61 47 15 64.55 15.18 72.88 16 105 48.29 126.58 56 131.46c6.82-4.88 40-26.45 40.84-58.58C97 64.55 95.42 47 86.33 44a9.35 9.35 0 0 0-2.93-.45z" fill="#ad0824"/><path d="M37.58 49.46c-11.52-9.74-14.72-19.21-14.72-25.9 0-9.91 7.47-17.95 16.69-17.95s15.74 7.93 15.74 17.84c0-9.91 7.92-17.84 17.13-17.84s16.69 8 16.69 17.95c0 6.23-4.85 17.73-14.64 25.91" fill="none" stroke="#ad0824" stroke-linecap="round" stroke-linejoin="round" stroke-width="4"/><path d="M79 44.37c-2.09 1-4.71 1-7.19 1A14.76 14.76 0 0 1 56.9 32.79c-1.26 7.39-9 12.68-16.75 12.68-2.48-.01-6.15-.4-8.15-1.47" fill="none" stroke="#ad0824" stroke-linecap="round" stroke-linejoin="round" stroke-width="4"/><path fill="none" stroke="#ad0824" stroke-linecap="round" stroke-linejoin="round" stroke-width="2" d="M64.07 27.46l1.83-1.83 1.77 1.77M42.07 27.46l1.83-1.83 1.77 1.77"/><path d="M107.3 25c-1.13 0-2.69 1.28-3.82 3.49-1.13-2.22-2.68-3.49-3.81-3.49a1.3 1.3 0 0 0-.41.06c-1.26.42-1.5 2.86-1.46 4 .12 4.47 4.61 7.47 5.68 8.15 1-.68 5.57-3.68 5.68-8.15 0-1.16-.2-3.6-1.46-4a1.3 1.3 0 0 0-.4-.06zM8.85 28.08c-.8.8-1 2.81-.23 5.16-2.36-.76-4.36-.57-5.16.23a1.3 1.3 0 0 0-.24.33c-.6 1.2.96 3.09 1.78 3.88 3.25 3.08 8.55 2 9.78 1.75.19-1.15 1.33-6.54-1.75-9.79-.8-.84-2.69-2.41-3.87-1.81a1.3 1.3 0 0 0-.33.24zM93 32.31a3 3 0 0 0-.13 2.78 3 3 0 0 0-2.78.12.7.7 0 0 0-.13.18c-.32.64.52 1.66 1 2.09 1.75 1.66 4.6 1.09 5.27.94.1-.62.72-3.52-.94-5.27-.43-.45-1.45-1.3-2.09-1a.7.7 0 0 0-.18.13z" fill="#f5c8c4"/><path fill="none" d="M0 0h112v141H0z"/></g></svg>