<svg xmlns="http://www.w3.org/2000/svg" viewBox="0 0 95 142"><title>bsh_illus_</title><g style="isolation:isolate"><path fill="none" d="M0 0h95v142H0z"/><path d="M88.51 47.27C88.51 78.67 49 128 49 128S6.5 78.91 6.5 47.28C6.5 24.48 26.2 6 49 6s39.51 18.47 39.51 41.27z" fill="#f2eddc"/><path fill="#f2eddc" d="M15.38 73.25h63.5v9h-63.5z"/><path fill="#3bbfb2" d="M75.5 83l-19 31.63-.37-31.13L75.5 83"/><path fill="#f2eddc" d="M76 19.61L41.5 54.77l44.13.23 2.62-11.5-5.37-17.87L76 19.61M28.38 10.32l18.43 17.75-26.45 27.94L9.13 55 6.5 46.38 12.88 28l15.5-17.68"/><path fill="#3bbfb2" d="M20.81 16.54l9.1 8.16.86 4.14-2.17 6.11L21.5 40H17l-7.72-7.76 11.53-15.7"/><path fill="#595d63" d="M18 58.5L65.7 8.13l13.18 9.5L37 59.25l-19-.75"/><path fill="#595d63" d="M84 72.99l-72.75-.61L8 55h77.63L84 72.99"/><ellipse cx="48.82" cy="131.64" rx="18.01" ry="7.64" fill="#f2eddc" opacity=".8" style="mix-blend-mode:multiply"/><path fill="#d9d1b9" d="M41.5 63.01h6v2h-6zM30 63h6v2h-6zM18 63h6v2h-6zM53.5 63.01h6v2h-6zM65.5 63.01h6v2h-6zM77.5 63.01h6v2h-6z"/><path fill="none" stroke="#decba9" stroke-miterlimit="10" stroke-width="4" d="M65.7 9.47L20.8 55H8M84 73H12M77.43 18.19L40.52 55H88"/><path fill="none" stroke="#decba9" stroke-linecap="round" stroke-miterlimit="10" stroke-width="4" d="M18 83h58"/><circle cx="70.5" cy="42.07" r="5" fill="#d9d1b9"/><circle cx="70.5" cy="37.3" r="5" fill="#f12e4e"/><path fill="none" stroke="#decba9" stroke-miterlimit="10" stroke-width="4" d="M56 83v34"/><path fill="none" stroke="#decba9" stroke-linecap="round" stroke-miterlimit="10" stroke-width="2" d="M44 100H30"/><path d="M21.89 16.56l8.28 8.28a4.82 4.82 0 0 1 0 6.81l-8.51 8.51a3.15 3.15 0 0 1-4.46 0l-8.07-8.07M47.5 27.01L30.81 10.32" fill="none" stroke="#decba9" stroke-linecap="round" stroke-linejoin="round" stroke-width="4"/><path d="M88.51 47.27C88.51 78.67 49 128 49 128S6.5 78.91 6.5 47.28C6.5 24.48 26.2 6 49 6s39.51 18.47 39.51 41.27z" fill="none" stroke="#d4bc93" stroke-linecap="round" stroke-linejoin="round" stroke-width="6"/></g></svg>