<svg xmlns="http://www.w3.org/2000/svg" viewBox="0 0 144 130"><title>bsh_illus_</title><g style="isolation:isolate"><path d="M122.45 117.76L73.63 121h-.28l-48.83-3.28 6.39-8.26h85.15z" fill="#42454a" opacity=".05" style="mix-blend-mode:multiply"/><path fill="#f2eddc" d="M30 11v72l43.57 28L116 82.79V12l-86-1"/><path fill="#f5c8c4" d="M116.86 13.5l-.37 69.29-14.26 8.36-19.64 11.51-9.1 5.34L73 22l43.86-8.5"/><circle cx="39.55" cy="61.27" r="12.1" fill="#f5c8c4" opacity=".2" style="mix-blend-mode:multiply"/><circle cx="28.55" cy="49.27" r="12.1" fill="#e7fa14"/><path d="M101.74 91.15L82.1 102.66a14.7 14.7 0 0 1-.7-6c.16-3.65 1.67-10.55 6.23-12.26 4.37-1.6 10.74 1.69 14.11 6.75z" fill="#f5c8c4" opacity=".2" style="mix-blend-mode:multiply"/><path fill="#f2eddc" d="M89.29 83.1l5.21-2.6 10.5 2.6 5.29 4.37 1.18 7.72-5.47 9.2-11.21-1.44L89 95.33 87.58 84.5l1.71-1.4"/><path fill="none" stroke="#f57569" stroke-linejoin="round" stroke-width="6" d="M30 22v14"/><path fill="none" stroke="#f57569" stroke-linecap="round" stroke-linejoin="round" stroke-width="6" d="M110.83 86.11l5.17-3.32V11l-42.5 2.75L30 11v11M30 74v8.79L73.57 111h-.06l16.38-11"/><path fill="none" stroke="#f57569" stroke-linejoin="round" stroke-width="6" d="M30 62v12"/><path d="M89.66 96.85c.85 1.75 2.41 4.94 6 6.56a11.65 11.65 0 0 0 13-2.53c3.75-4 3.46-9.78 1.58-13.4-3.93-7.59-16.7-9.33-21-4.38-3.15 3.68-1.18 10.46.42 13.75z" fill="none" stroke="#f5c8c4" stroke-linecap="round" stroke-linejoin="round" stroke-width="4"/><path d="M135.45 124.22c-3.4.81-7.2 1.16-8.92-.83-3-3.5 2.93-11.21.12-14.17-3-3.13-12.19 3.34-15.88-.25-1.36-1.33-1.42-3.48-1.29-5" fill="none" stroke="#f2eddc" stroke-linecap="round" stroke-linejoin="round" stroke-width="4"/><circle cx="98.06" cy="94.44" r="2" transform="rotate(-45 98.06 94.442)" fill="#42454a"/><path fill="none" stroke="#e2f515" stroke-linecap="round" stroke-linejoin="round" stroke-width="2" d="M39.75 37.17l-2.46 2.46"/><path fill="none" stroke="#e8fa1e" stroke-linecap="round" stroke-linejoin="round" stroke-width="2" d="M16.44 49.29H9.38"/><path d="M35.55 60a11.25 11.25 0 0 1-3.13 1.65 14.3 14.3 0 0 1-3.87.58 13 13 0 1 1 13-13 12.85 12.85 0 0 1-.55 3.91 12.45 12.45 0 0 1-2.5 4.4" fill="none" stroke="#f5c8c4" stroke-linecap="round" stroke-linejoin="round" stroke-width="4"/><rect x="22.58" y="54.29" width="2" height="2" rx="1" ry="1" fill="#9fad0e"/><rect x="21.08" y="54.79" width="1" height="1" rx=".5" ry=".5" fill="#9fad0e"/><path fill="none" stroke="#e8fa1e" stroke-linecap="round" stroke-linejoin="round" stroke-width="2" d="M32.67 54.29l7.98 7.98"/><path fill="none" stroke="#f57569" stroke-linecap="round" stroke-linejoin="round" stroke-width="4" d="M59.94 20.75L73 23v77"/><path fill="none" stroke="#42454a" stroke-linecap="round" stroke-linejoin="round" stroke-width="3" opacity=".1" style="mix-blend-mode:multiply" d="M14.25 61.91l-5.66 4.03M10.85 56.54l-2.79 1.74M18.31 66.19l-.81.68"/><path d="M25.44 7.24l-.33-2.73 3.74-.38" fill="none" stroke="#f57569" stroke-linecap="round" stroke-linejoin="round" stroke-width="2"/><path fill="#f5c8c4" d="M121.79 31.76l-.91 2.64 2.66.86-.91 2.65"/><path fill="none" stroke="#f57569" stroke-linecap="round" stroke-linejoin="round" stroke-width="2" d="M121.79 31.76l-.91 2.64 2.66.86-.91 2.65"/><path fill="#f5c8c4" d="M42.83 98.39l1.3 3.38 3.61.12 1.31 3.38"/><path fill="none" stroke="#f57569" stroke-linecap="round" stroke-linejoin="round" stroke-width="2" d="M42.83 98.39l1.3 3.38 3.61.12 1.31 3.38"/><path fill="#f5c8c4" d="M41.35 102.93l.87 2.92 3-.46.87 2.91"/><path fill="none" stroke="#f57569" stroke-linecap="round" stroke-linejoin="round" stroke-width="2" d="M41.35 102.93l.87 2.92 3-.46.87 2.91"/><path fill="#f5c8c4" d="M125.37 29.97l-.92 2.64 2.67.86-.91 2.65"/><path fill="none" stroke="#f57569" stroke-linecap="round" stroke-linejoin="round" stroke-width="2" d="M125.37 29.97l-.92 2.64 2.67.86-.91 2.65"/><path fill="none" d="M0 0h144v130H0z"/></g></svg>